<svg width="1178" height="419" viewBox="0 0 1178 419" fill="none" xmlns="http://www.w3.org/2000/svg">
<path d="M96.7161 0H3.81951C1.71005 0 0 1.69333 0 3.78215V175.913C0 178.002 1.71005 179.695 3.81951 179.695H96.7161C98.8255 179.695 100.536 178.002 100.536 175.913V3.78215C100.536 1.69333 98.8255 0 96.7161 0Z" transform="translate(681 39)" fill="url(#paint0_linear)"/>
<path d="M91.2747 0H6.54499C2.93029 0 0 2.90163 0 6.48097V168.358C0 171.937 2.93029 174.839 6.54499 174.839H91.2747C94.8894 174.839 97.8197 171.937 97.8197 168.358V6.48097C97.8197 2.90163 94.8894 0 91.2747 0Z" transform="translate(682.362 41.4272)" fill="white"/>
<path d="M71.0304 0C70.7412 1.84898 69.7949 3.535 68.3619 4.75451C66.9289 5.97402 65.1033 6.6469 63.2138 6.65203H29.4284C27.539 6.6469 25.7134 5.97402 24.2804 4.75451C22.8474 3.535 21.9011 1.84898 21.6119 0H3.71394C2.72894 0 1.78429 0.387461 1.08779 1.07715C0.391288 1.76684 0 2.70225 0 3.67762V162.376C0 163.351 0.391288 164.287 1.08779 164.976C1.78429 165.666 2.72894 166.054 3.71394 166.054H89.197C90.182 166.054 91.1267 165.666 91.8232 164.976C92.5197 164.287 92.911 163.351 92.911 162.376V3.67762C92.911 2.70308 92.5204 1.76838 91.8249 1.07883C91.1294 0.389276 90.186 0.0012591 89.2018 0H71.0304Z" transform="translate(684.815 45.8231)" fill="#FAFAFA"/>
<path d="M21.1177 0H0.681372C0.305062 0 0 0.302076 0 0.674706C0 1.04734 0.305062 1.34941 0.681372 1.34941H21.1177C21.494 1.34941 21.799 1.04734 21.799 0.674706C21.799 0.302076 21.494 0 21.1177 0Z" transform="translate(720.51 47.9042)" fill="#DBDBDB"/>
<path d="M0.815463 1.61498C1.26583 1.61498 1.63093 1.25345 1.63093 0.807488C1.63093 0.361524 1.26583 0 0.815463 0C0.365094 0 0 0.361524 0 0.807488C0 1.25345 0.365094 1.61498 0.815463 1.61498Z" transform="translate(746.124 47.6381)" fill="#DBDBDB"/>
<path d="M96.7161 0H3.81952C1.71006 0 0 1.69333 0 3.78216V175.913C0 178.002 1.71006 179.695 3.81952 179.695H96.7161C98.8255 179.695 100.536 178.002 100.536 175.913V3.78216C100.536 1.69333 98.8255 0 96.7161 0Z" transform="translate(874.787 122.26)" fill="url(#paint1_linear)"/>
<path d="M91.2747 0H6.54498C2.93028 0 0 2.90163 0 6.48097V168.358C0 171.937 2.93028 174.839 6.54498 174.839H91.2747C94.8894 174.839 97.8197 171.937 97.8197 168.358V6.48097C97.8197 2.90163 94.8894 0 91.2747 0Z" transform="translate(876.145 124.688)" fill="white"/>
<path d="M71.0304 0C70.7474 1.85418 69.8038 3.54693 68.3702 4.77219C66.9366 5.99745 65.1076 6.67435 63.2138 6.68053H29.4284C27.5347 6.67435 25.7057 5.99745 24.2721 4.77219C22.8384 3.54693 21.8949 1.85418 21.6119 0H3.71395C2.72895 0 1.78429 0.387458 1.08779 1.07715C0.391292 1.76683 0 2.70226 0 3.67762V162.4C0 163.375 0.391292 164.311 1.08779 165C1.78429 165.69 2.72895 166.077 3.71395 166.077H89.1923C89.682 166.08 90.1675 165.988 90.6209 165.804C91.0742 165.621 91.4865 165.35 91.8339 165.009C92.1813 164.667 92.457 164.26 92.6452 163.813C92.8333 163.365 92.9302 162.885 92.9302 162.4V3.70137C92.9302 2.72601 92.5389 1.79059 91.8424 1.1009C91.1459 0.411216 90.2012 0.0237514 89.2162 0.0237514L71.0304 0Z" transform="translate(878.602 129.073)" fill="#FAFAFA"/>
<path d="M21.1177 0H0.681361C0.305051 0 0 0.302075 0 0.674705C0 1.04733 0.305051 1.34941 0.681361 1.34941H21.1177C21.494 1.34941 21.799 1.04733 21.799 0.674705C21.799 0.302075 21.494 0 21.1177 0Z" transform="translate(914.292 131.164)" fill="#DBDBDB"/>
<path d="M0.81547 1.61497C1.26584 1.61497 1.63091 1.25345 1.63091 0.807487C1.63091 0.361524 1.26584 0 0.81547 0C0.365102 0 0 0.361524 0 0.807487C0 1.25345 0.365102 1.61497 0.81547 1.61497Z" transform="translate(939.906 130.898)" fill="#DBDBDB"/>
<g opacity="0.8">
<path opacity="0.8" d="M2.87811 0V2.84996H0" transform="translate(916.087 177.7)" stroke="#664476" stroke-width="2" stroke-miterlimit="10"/>
<path opacity="0.8" d="M15.6139 0H0" transform="translate(896.01 180.55)" stroke="#664476" stroke-width="2" stroke-miterlimit="10" stroke-dasharray="9.3 9.3"/>
<path opacity="0.8" d="M2.87811 2.84996H0V0" transform="translate(890.905 177.7)" stroke="#664476" stroke-width="2" stroke-miterlimit="10"/>
<path opacity="0.8" d="M0 9.65495V0" transform="translate(890.905 161.611)" stroke="#664476" stroke-width="2" stroke-miterlimit="10" stroke-dasharray="13.55 13.55"/>
<path opacity="0.8" d="M0 2.84996V0H2.87811" transform="translate(890.905 155.544)" stroke="#664476" stroke-width="2" stroke-miterlimit="10"/>
<path opacity="0.8" d="M0 0H15.6139" transform="translate(898.242 155.544)" stroke="#664476" stroke-width="2" stroke-miterlimit="10" stroke-dasharray="9.3 9.3"/>
<path opacity="0.8" d="M0 0H2.87811V2.84996" transform="translate(916.087 155.544)" stroke="#664476" stroke-width="2" stroke-miterlimit="10"/>
<path opacity="0.8" d="M0 0V9.65495" transform="translate(918.966 164.828)" stroke="#664476" stroke-width="2" stroke-miterlimit="10" stroke-dasharray="13.55 13.55"/>
</g>
<g opacity="0.8">
<path opacity="0.8" d="M2.87811 0V2.84996H0" transform="translate(957.871 272.187)" stroke="#664476" stroke-width="2" stroke-miterlimit="10"/>
<path opacity="0.8" d="M15.6139 0H0" transform="translate(937.795 275.038)" stroke="#664476" stroke-width="2" stroke-miterlimit="10" stroke-dasharray="9.3 9.3"/>
<path opacity="0.8" d="M2.87811 2.84996H0V0" transform="translate(932.685 272.187)" stroke="#664476" stroke-width="2" stroke-miterlimit="10"/>
<path opacity="0.8" d="M0 9.65495V0" transform="translate(932.689 256.094)" stroke="#664476" stroke-width="2" stroke-miterlimit="10" stroke-dasharray="13.55 13.55"/>
<path opacity="0.8" d="M0 2.84996V0H2.87811" transform="translate(932.685 250.026)" stroke="#664476" stroke-width="2" stroke-miterlimit="10"/>
<path opacity="0.8" d="M0 0H15.6139" transform="translate(940.026 250.026)" stroke="#664476" stroke-width="2" stroke-miterlimit="10" stroke-dasharray="9.3 9.3"/>
<path opacity="0.8" d="M0 0H2.87811V2.84996" transform="translate(957.871 250.026)" stroke="#664476" stroke-width="2" stroke-miterlimit="10"/>
<path opacity="0.8" d="M0 0V9.65019" transform="translate(960.75 259.315)" stroke="#664476" stroke-width="2" stroke-miterlimit="10" stroke-dasharray="13.55 13.55"/>
</g>
<g opacity="0.8">
<path opacity="0.8" d="M0 0H70.1619" transform="translate(890.747 193.674)" stroke="#664476" stroke-width="2" stroke-miterlimit="10" stroke-dasharray="12 12"/>
<path opacity="0.8" d="M0 0H70.1619" transform="translate(890.747 207.572)" stroke="#664476" stroke-width="2" stroke-miterlimit="10" stroke-dasharray="12 12"/>
<path opacity="0.8" d="M0 0H70.1619" transform="translate(890.747 221.465)" stroke="#664476" stroke-width="2" stroke-miterlimit="10" stroke-dasharray="12 12"/>
<path opacity="0.8" d="M0 0H70.1619" transform="translate(890.747 235.358)" stroke="#664476" stroke-width="2" stroke-miterlimit="10" stroke-dasharray="12 12"/>
</g>
<path d="M96.7161 0H3.81952C1.71006 0 0 1.69332 0 3.78215V175.913C0 178.002 1.71006 179.695 3.81952 179.695H96.7161C98.8255 179.695 100.536 178.002 100.536 175.913V3.78215C100.536 1.69332 98.8255 0 96.7161 0Z" transform="translate(1068.44 205.125)" fill="url(#paint2_linear)"/>
<path d="M91.2747 0H6.54499C2.9303 0 0 2.90164 0 6.48098V168.358C0 171.937 2.9303 174.839 6.54499 174.839H91.2747C94.8894 174.839 97.8197 171.937 97.8197 168.358V6.48098C97.8197 2.90164 94.8894 0 91.2747 0Z" transform="translate(1069.79 207.553)" fill="white"/>
<path d="M71.0304 0C70.7474 1.85418 69.8038 3.54694 68.3702 4.7722C66.9366 5.99746 65.1076 6.67437 63.2138 6.68055H29.4284C27.5347 6.67437 25.7057 5.99746 24.272 4.7722C22.8384 3.54694 21.8948 1.85418 21.6119 0H3.71394C2.72894 0 1.78428 0.387465 1.08778 1.07715C0.391277 1.76684 0 2.70226 0 3.67763V162.376C0 163.351 0.391277 164.287 1.08778 164.976C1.78428 165.666 2.72894 166.054 3.71394 166.054H89.197C90.182 166.054 91.1267 165.666 91.8232 164.976C92.5197 164.287 92.911 163.351 92.911 162.376V3.67763C92.911 2.70226 92.5197 1.76684 91.8232 1.07715C91.1267 0.387465 90.182 0 89.197 0H71.0304Z" transform="translate(1072.25 211.938)" fill="#FAFAFA"/>
<path d="M21.1177 0H0.681361C0.305051 0 0 0.302082 0 0.674712C0 1.04734 0.305051 1.34941 0.681361 1.34941H21.1177C21.494 1.34941 21.799 1.04734 21.799 0.674712C21.799 0.302082 21.494 0 21.1177 0Z" transform="translate(1107.94 214.029)" fill="#DBDBDB"/>
<path d="M0.81547 1.61497C1.26584 1.61497 1.63091 1.25346 1.63091 0.807494C1.63091 0.361531 1.26584 0 0.81547 0C0.365102 0 0 0.361531 0 0.807494C0 1.25346 0.365102 1.61497 0.81547 1.61497Z" transform="translate(1133.55 213.763)" fill="#DBDBDB"/>
<path d="M28.0657 0H0V25.0116H28.0657V0Z" transform="translate(1082.37 238.409)" fill="#3B0754"/>
<path d="M28.0657 0H0V25.0116H28.0657V0Z" transform="translate(1124.47 332.891)" fill="#3B0754"/>
<path d="M0 0H70.1571" transform="translate(1082.37 277.931)" stroke="#664476" stroke-width="2" stroke-miterlimit="10"/>
<path d="M0 0H70.1571" transform="translate(1082.37 291.824)" stroke="#664476" stroke-width="2" stroke-miterlimit="10"/>
<path d="M0 0H70.1571" transform="translate(1082.37 305.718)" stroke="#664476" stroke-width="2" stroke-miterlimit="10"/>
<path d="M0 0H70.1571" transform="translate(1082.37 319.616)" stroke="#664476" stroke-width="2" stroke-miterlimit="10"/>
<path d="M0 0H132.915V48.4648" transform="translate(792.778 58.3431)" stroke="#3AD29F" stroke-width="2" stroke-miterlimit="10" stroke-dasharray="12 12"/>
<path d="M0 0V89.3272H193.854V74.1226" transform="translate(925.213 319.673)" stroke="#3AD29F" stroke-width="2" stroke-miterlimit="10" stroke-dasharray="12 12"/>
<path opacity="0.5" d="M4.31854 0H0V4.2763H4.31854V0Z" transform="translate(779.597 282.92)" fill="#F55F44"/>
<path opacity="0.5" d="M4.31854 0H0V4.2763H4.31854V0Z" transform="translate(898.597 66.7295)" fill="#F55F44"/>
<path opacity="0.5" d="M4.31854 0H0V4.2763H4.31854V0Z" transform="translate(736.412 252.986)" fill="#F55F44"/>
<path opacity="0.5" d="M4.31854 0H0V4.2763H4.31854V0Z" transform="translate(775.279 359.894)" fill="#F55F44"/>
<path opacity="0.5" d="M4.31854 0H0V4.2763H4.31854V0Z" transform="translate(883.242 376.999)" fill="#F55F44"/>
<path opacity="0.5" d="M4.31854 0H0V4.2763H4.31854V0Z" transform="translate(829.5 186.466)" fill="#F55F44"/>
<path opacity="0.5" d="M4.31854 0H0V4.2763H4.31854V0Z" transform="translate(1028.15 336.612)" fill="#F55F44"/>
<path opacity="0.5" d="M4.31854 0H0V4.2763H4.31854V0Z" transform="translate(1025.75 163.184)" fill="#F55F44"/>
<path opacity="0.5" d="M4.31854 0H0V4.2763H4.31854V0Z" transform="translate(949.939 319.506)" fill="#F55F44"/>
<path opacity="0.5" d="M4.31854 0H0V4.2763H4.31854V0Z" transform="translate(1094.85 94.763)" fill="#F55F44"/>
<path opacity="0.5" d="M4.31854 0H0V4.2763H4.31854V0Z" transform="translate(982.568 86.2104)" fill="#F55F44"/>
<path opacity="0.5" d="M4.31854 0H0V4.2763H4.31854V0Z" transform="translate(1081.89 394.104)" fill="#F55F44"/>
<path d="M0 0V140H194V116.17" transform="translate(545 180)" stroke="#3AD29F" stroke-width="2" stroke-miterlimit="10" stroke-dasharray="12 12"/>
<mask id="path-57-inside-1" fill="white">
<path d="M52.1568 61.1339L49.4332 55.0874C52.0297 53.1814 54.2597 50.8104 56.0022 48.1042L62.2039 50.4541C63.3899 50.9036 64.715 50.3062 65.1641 49.1207L67.4433 43.1045C67.6591 42.5351 67.6398 41.9034 67.3896 41.3482C67.1393 40.7931 66.6793 40.3602 66.1095 40.1444L59.9077 37.7944C60.3963 34.6125 60.2971 31.3599 59.6153 28.2115L65.6618 25.4879C66.2169 25.2376 66.6499 24.7776 66.8657 24.2077C67.0815 23.6384 67.0622 23.0066 66.812 22.4515L64.1696 16.5859C63.6489 15.4297 62.2889 14.9155 61.1337 15.4357L55.0871 18.1594C53.1812 15.5629 50.8101 13.3328 48.1039 11.5903L50.4539 5.3886C50.9029 4.20308 50.306 2.87751 49.1205 2.42847L43.1047 0.148791C42.5358 -0.0665501 41.904 -0.047725 41.3485 0.202511C40.7934 0.452748 40.3604 0.912815 40.1446 1.48262L37.7951 7.68389C34.61 7.1926 31.3519 7.29407 28.2117 7.97591L25.4885 1.92983C25.2383 1.37472 24.7782 0.941741 24.2084 0.725941C23.6395 0.5106 23.0073 0.529425 22.4522 0.779662L16.5861 3.42207C15.43 3.94274 14.9152 5.30182 15.4359 6.45796L18.1596 12.5045C15.5631 14.4104 13.333 16.7815 11.5905 19.4877L5.38882 17.1378C4.81993 16.9224 4.18814 16.9417 3.63257 17.1915C3.07746 17.4417 2.64448 17.9018 2.42868 18.4716L0.149466 24.4874C-0.299582 25.6729 0.297312 26.9985 1.48284 27.4475L7.68456 29.7974C7.19603 32.9789 7.2952 36.2324 7.97704 39.3803L1.93005 42.104C1.37494 42.3542 0.941957 42.8143 0.726157 43.3841C0.510357 43.9535 0.529641 44.5852 0.779878 45.1404L3.42228 51.006C3.67206 51.5611 4.13259 51.9941 4.70193 52.2099C5.27173 52.4257 5.90306 52.4069 6.45818 52.1562L12.5047 49.4325C14.4106 52.0294 16.7812 54.2591 19.4879 56.0015L17.138 62.2033C16.6889 63.3888 17.2858 64.7143 18.4714 65.1634L24.4876 67.4426C24.7498 67.5418 25.0257 67.5914 25.3007 67.5914C25.6226 67.5914 25.9445 67.5239 26.2438 67.3889C26.7989 67.1387 27.2319 66.6786 27.4477 66.1088L29.7972 59.9075C32.9823 60.3983 36.2409 60.2973 39.3805 59.6155L42.1038 65.6616C42.354 66.2167 42.8141 66.6497 43.3839 66.8655C43.9532 67.0813 44.5855 67.0624 45.1401 66.8117L51.0057 64.1698C52.1623 63.6491 52.6775 62.29 52.1568 61.1339ZM48.3523 39.311C46.0736 45.3259 40.2226 49.3668 33.7932 49.3668C31.9125 49.3668 30.058 49.0252 28.2811 48.3521C24.393 46.8792 21.3112 43.9801 19.6036 40.1889C17.896 36.3982 17.767 32.1689 19.24 28.2809C21.5187 22.266 27.3697 18.225 33.7991 18.225C35.6798 18.225 37.5343 18.5666 39.3112 19.2398C43.1993 20.7127 46.2811 23.6118 47.9887 27.4025C49.6967 31.1937 49.8257 35.4229 48.3523 39.311ZM99.3955 70.6599C98.9841 70.2113 98.4106 69.9445 97.8027 69.9183L93.4784 69.7328C93.0803 67.6919 92.3613 65.7217 91.3512 63.903L94.54 60.9764C95.4743 60.1192 95.5363 58.6669 94.6791 57.733L91.5128 54.2829C91.1014 53.8343 90.5279 53.5676 89.9196 53.5414C89.3126 53.5189 88.7175 53.7324 88.2689 54.1438L85.0806 57.0704C83.3546 55.9083 81.4533 55.0235 79.4542 54.4524L79.6397 50.1281C79.6938 48.8613 78.7108 47.7906 77.444 47.7364L72.7657 47.5357C71.5054 47.488 70.4282 48.4646 70.374 49.7309L70.1885 54.0552C68.1481 54.4533 66.1779 55.1723 64.3587 56.182L61.4321 52.9932C61.0207 52.5446 60.4472 52.2778 59.8393 52.2517C59.2314 52.2269 58.6373 52.4427 58.1887 52.8541L54.7386 56.0204C53.8043 56.8776 53.7423 58.3299 54.5995 59.2638L57.5261 62.4526C56.364 64.1785 55.4792 66.0794 54.9081 68.079L50.5842 67.8935C49.323 67.8425 48.2463 68.8219 48.1921 70.0887L47.9914 74.767C47.9653 75.3753 48.182 75.969 48.5938 76.4176C49.0052 76.8662 49.5787 77.133 50.1871 77.1591L54.5109 77.3442C54.909 79.3851 55.628 81.3553 56.6377 83.1744L53.4493 86.1011C53.0008 86.5124 52.734 87.0859 52.7078 87.6938C52.6816 88.3022 52.8984 88.8959 53.3102 89.3445L56.4765 92.7945C56.8879 93.2431 57.4614 93.5099 58.0698 93.5361C58.6754 93.5604 59.2718 93.345 59.7204 92.9336L62.9087 90.007C64.6347 91.1691 66.536 92.0539 68.5351 92.6251L68.3496 96.9494C68.2955 98.2162 69.2781 99.2869 70.5448 99.3411L75.2231 99.5417C75.2562 99.5431 75.2888 99.5436 75.3214 99.5436C75.8953 99.5436 76.4495 99.3287 76.8738 98.9393C77.3223 98.5279 77.5891 97.9544 77.6153 97.3465L77.8008 93.0223C79.8412 92.6242 81.8114 91.9052 83.6306 90.8955L86.5572 94.0843C86.9686 94.5329 87.5421 94.7996 88.15 94.8258C88.7607 94.8524 89.3525 94.6348 89.8006 94.2234L93.2507 91.0571C94.1851 90.1999 94.247 88.7476 93.3898 87.8137L90.4632 84.6249C91.6253 82.8989 92.5101 80.9981 93.0813 78.9985L97.4051 79.184C98.6705 79.2326 99.7426 78.2556 99.7972 76.9888L99.9979 72.3105C100.024 71.7021 99.8073 71.1085 99.3955 70.6599ZM73.5357 84.2342C67.6384 83.9816 63.046 78.9778 63.299 73.0805C63.5451 67.3347 68.239 62.8337 73.9848 62.8337C74.14 62.8337 74.2961 62.8369 74.4527 62.8438C80.35 63.0968 84.9424 68.1001 84.6894 73.9974C84.4364 79.8989 79.4813 84.4839 73.5357 84.2342Z"/>
</mask>
<path d="M52.1568 61.1339L49.4332 55.0874C52.0297 53.1814 54.2597 50.8104 56.0022 48.1042L62.2039 50.4541C63.3899 50.9036 64.715 50.3062 65.1641 49.1207L67.4433 43.1045C67.6591 42.5351 67.6398 41.9034 67.3896 41.3482C67.1393 40.7931 66.6793 40.3602 66.1095 40.1444L59.9077 37.7944C60.3963 34.6125 60.2971 31.3599 59.6153 28.2115L65.6618 25.4879C66.2169 25.2376 66.6499 24.7776 66.8657 24.2077C67.0815 23.6384 67.0622 23.0066 66.812 22.4515L64.1696 16.5859C63.6489 15.4297 62.2889 14.9155 61.1337 15.4357L55.0871 18.1594C53.1812 15.5629 50.8101 13.3328 48.1039 11.5903L50.4539 5.3886C50.9029 4.20308 50.306 2.87751 49.1205 2.42847L43.1047 0.148791C42.5358 -0.0665501 41.904 -0.047725 41.3485 0.202511C40.7934 0.452748 40.3604 0.912815 40.1446 1.48262L37.7951 7.68389C34.61 7.1926 31.3519 7.29407 28.2117 7.97591L25.4885 1.92983C25.2383 1.37472 24.7782 0.941741 24.2084 0.725941C23.6395 0.5106 23.0073 0.529425 22.4522 0.779662L16.5861 3.42207C15.43 3.94274 14.9152 5.30182 15.4359 6.45796L18.1596 12.5045C15.5631 14.4104 13.333 16.7815 11.5905 19.4877L5.38882 17.1378C4.81993 16.9224 4.18814 16.9417 3.63257 17.1915C3.07746 17.4417 2.64448 17.9018 2.42868 18.4716L0.149466 24.4874C-0.299582 25.6729 0.297312 26.9985 1.48284 27.4475L7.68456 29.7974C7.19603 32.9789 7.2952 36.2324 7.97704 39.3803L1.93005 42.104C1.37494 42.3542 0.941957 42.8143 0.726157 43.3841C0.510357 43.9535 0.529641 44.5852 0.779878 45.1404L3.42228 51.006C3.67206 51.5611 4.13259 51.9941 4.70193 52.2099C5.27173 52.4257 5.90306 52.4069 6.45818 52.1562L12.5047 49.4325C14.4106 52.0294 16.7812 54.2591 19.4879 56.0015L17.138 62.2033C16.6889 63.3888 17.2858 64.7143 18.4714 65.1634L24.4876 67.4426C24.7498 67.5418 25.0257 67.5914 25.3007 67.5914C25.6226 67.5914 25.9445 67.5239 26.2438 67.3889C26.7989 67.1387 27.2319 66.6786 27.4477 66.1088L29.7972 59.9075C32.9823 60.3983 36.2409 60.2973 39.3805 59.6155L42.1038 65.6616C42.354 66.2167 42.8141 66.6497 43.3839 66.8655C43.9532 67.0813 44.5855 67.0624 45.1401 66.8117L51.0057 64.1698C52.1623 63.6491 52.6775 62.29 52.1568 61.1339ZM48.3523 39.311C46.0736 45.3259 40.2226 49.3668 33.7932 49.3668C31.9125 49.3668 30.058 49.0252 28.2811 48.3521C24.393 46.8792 21.3112 43.9801 19.6036 40.1889C17.896 36.3982 17.767 32.1689 19.24 28.2809C21.5187 22.266 27.3697 18.225 33.7991 18.225C35.6798 18.225 37.5343 18.5666 39.3112 19.2398C43.1993 20.7127 46.2811 23.6118 47.9887 27.4025C49.6967 31.1937 49.8257 35.4229 48.3523 39.311ZM99.3955 70.6599C98.9841 70.2113 98.4106 69.9445 97.8027 69.9183L93.4784 69.7328C93.0803 67.6919 92.3613 65.7217 91.3512 63.903L94.54 60.9764C95.4743 60.1192 95.5363 58.6669 94.6791 57.733L91.5128 54.2829C91.1014 53.8343 90.5279 53.5676 89.9196 53.5414C89.3126 53.5189 88.7175 53.7324 88.2689 54.1438L85.0806 57.0704C83.3546 55.9083 81.4533 55.0235 79.4542 54.4524L79.6397 50.1281C79.6938 48.8613 78.7108 47.7906 77.444 47.7364L72.7657 47.5357C71.5054 47.488 70.4282 48.4646 70.374 49.7309L70.1885 54.0552C68.1481 54.4533 66.1779 55.1723 64.3587 56.182L61.4321 52.9932C61.0207 52.5446 60.4472 52.2778 59.8393 52.2517C59.2314 52.2269 58.6373 52.4427 58.1887 52.8541L54.7386 56.0204C53.8043 56.8776 53.7423 58.3299 54.5995 59.2638L57.5261 62.4526C56.364 64.1785 55.4792 66.0794 54.9081 68.079L50.5842 67.8935C49.323 67.8425 48.2463 68.8219 48.1921 70.0887L47.9914 74.767C47.9653 75.3753 48.182 75.969 48.5938 76.4176C49.0052 76.8662 49.5787 77.133 50.1871 77.1591L54.5109 77.3442C54.909 79.3851 55.628 81.3553 56.6377 83.1744L53.4493 86.1011C53.0008 86.5124 52.734 87.0859 52.7078 87.6938C52.6816 88.3022 52.8984 88.8959 53.3102 89.3445L56.4765 92.7945C56.8879 93.2431 57.4614 93.5099 58.0698 93.5361C58.6754 93.5604 59.2718 93.345 59.7204 92.9336L62.9087 90.007C64.6347 91.1691 66.536 92.0539 68.5351 92.6251L68.3496 96.9494C68.2955 98.2162 69.2781 99.2869 70.5448 99.3411L75.2231 99.5417C75.2562 99.5431 75.2888 99.5436 75.3214 99.5436C75.8953 99.5436 76.4495 99.3287 76.8738 98.9393C77.3223 98.5279 77.5891 97.9544 77.6153 97.3465L77.8008 93.0223C79.8412 92.6242 81.8114 91.9052 83.6306 90.8955L86.5572 94.0843C86.9686 94.5329 87.5421 94.7996 88.15 94.8258C88.7607 94.8524 89.3525 94.6348 89.8006 94.2234L93.2507 91.0571C94.1851 90.1999 94.247 88.7476 93.3898 87.8137L90.4632 84.6249C91.6253 82.8989 92.5101 80.9981 93.0813 78.9985L97.4051 79.184C98.6705 79.2326 99.7426 78.2556 99.7972 76.9888L99.9979 72.3105C100.024 71.7021 99.8073 71.1085 99.3955 70.6599ZM73.5357 84.2342C67.6384 83.9816 63.046 78.9778 63.299 73.0805C63.5451 67.3347 68.239 62.8337 73.9848 62.8337C74.14 62.8337 74.2961 62.8369 74.4527 62.8438C80.35 63.0968 84.9424 68.1001 84.6894 73.9974C84.4364 79.8989 79.4813 84.4839 73.5357 84.2342Z" transform="translate(505 79)" fill="#3B0754" fill-opacity="0.39" stroke="#7E009E" stroke-width="2" mask="url(#path-57-inside-1)"/>
<path d="M400 272.488V13.751V0H0V13.751V272.488H400Z" fill="url(#paint3_linear)"/>
<path d="M389.831 0H0V255.194H389.831V0Z" transform="translate(5.93188 12.3643)" fill="white"/>
<path d="M389.831 0H0V18.7748H389.831V0Z" transform="translate(5.93188 0.225586)" fill="#EEEEEE"/>
<path d="M4.55064 9.10129C7.0639 9.10129 9.10129 7.0639 9.10129 4.55064C9.10129 2.03739 7.0639 0 4.55064 0C2.03739 0 0 2.03739 0 4.55064C0 7.0639 2.03739 9.10129 4.55064 9.10129Z" transform="translate(16.2161 4.77625)" fill="#FF5252"/>
<path d="M4.55064 9.10129C7.0639 9.10129 9.10129 7.0639 9.10129 4.55064C9.10129 2.03739 7.0639 0 4.55064 0C2.03739 0 0 2.03739 0 4.55064C0 7.0639 2.03739 9.10129 4.55064 9.10129Z" transform="translate(28.7346 4.77625)" fill="#FFFF00"/>
<path d="M4.55064 9.10129C7.06389 9.10129 9.10129 7.0639 9.10129 4.55064C9.10129 2.03739 7.06389 0 4.55064 0C2.03739 0 0 2.03739 0 4.55064C0 7.0639 2.03739 9.10129 4.55064 9.10129Z" transform="translate(41.2529 4.77625)" fill="#69F0AE"/>
<path opacity="0.5" d="M145.268 0H0V6.05285H145.268V0Z" transform="translate(20.8713 49.0721)" fill="#3B0754"/>
<path opacity="0.5" d="M145.268 0H0V6.05285H145.268V0Z" transform="translate(20.8713 61.1779)" fill="#3B0754"/>
<path opacity="0.5" d="M145.268 0H0V6.05285H145.268V0Z" transform="translate(20.8713 73.2836)" fill="#3B0754"/>
<path opacity="0.5" d="M95.1949 0H0V6.05285H95.1949V0Z" transform="translate(70.9449 85.3892)" fill="#3B0754"/>
<path opacity="0.5" d="M76.486 0H0V6.05285H76.486V0Z" transform="translate(20.8713 97.4949)" fill="#3B0754"/>
<path opacity="0.5" d="M58.8777 0H0V6.05285H58.8777V0Z" transform="translate(62.1407 109.601)" fill="#3B0754"/>
<path opacity="0.5" d="M171.131 0H0V98.4964H171.131V0Z" transform="translate(185.399 91.4421)" fill="#3B0754"/>
<path d="M171.131 0H0V98.4964H171.131V0Z" transform="translate(205.758 100.797)" fill="#EEEEEE"/>
<path d="M95.7451 26.5898H0V8.54677C23.3915 -2.38689 59.384 -8.52778 95.7451 26.5898Z" transform="translate(205.758 172.703)" fill="#3B0754"/>
<g opacity="0.1">
<path opacity="0.1" d="M119.406 24.0089V26.5896H0V26.0393C0 26.0393 58.7567 -31.1711 119.406 24.0089Z" transform="translate(256.382 172.703)" fill="black"/>
</g>
<path d="M119.406 24.0089V26.5896H0V26.0393C0 26.0393 58.7567 -31.1711 119.406 24.0089Z" transform="translate(257.483 172.703)" fill="#3B0754"/>
<path d="M8.80415 17.6083C13.6665 17.6083 17.6083 13.6665 17.6083 8.80415C17.6083 3.94175 13.6665 0 8.80415 0C3.94175 0 0 3.94175 0 8.80415C0 13.6665 3.94175 17.6083 8.80415 17.6083Z" transform="translate(216.764 109.601)" fill="#3B0754"/>
<path d="M9.07377 0.227331C8.0668 0.227331 6.9443 0.227331 6.17943 0.287859C5.83749 0.30667 5.50011 0.375254 5.17796 0.491453L0 2.35133C4.18197 2.45588 8.54553 2.42286 12.8321 2.38985L36.8674 2.20276C39.3215 2.20276 41.8968 2.15874 43.9382 2.01567C45.3084 1.91663 46.3153 1.77356 47.5809 1.66351C52.1316 1.25632 58.7622 1.33335 64.6885 1.35536C70.6148 1.37737 77.7681 1.2233 79.8536 0.629017H67.1316C65.7615 0.629017 64.3198 0.62902 63.1092 0.562989C61.6951 0.48045 60.8312 0.326375 59.5876 0.216323C57.5296 0.04024 54.6903 0.0182354 52.049 0.00723017C37.5497 -0.0532984 23.2319 0.287859 9.07377 0.227331V0.227331Z" transform="translate(291.45 111.519)" fill="#F4F4F4"/>
<path d="M1.94791 0.0550293C1.7278 0.0550293 1.48571 0.0550293 1.32064 0.0550293C1.2455 0.0587988 1.17132 0.0736247 1.10052 0.0990426L0 0.500738C0.907928 0.500738 1.84886 0.500738 2.7788 0.500738L7.98427 0.462216C8.53453 0.462216 9.08477 0.46222 9.51397 0.423702C9.81111 0.423702 10.0312 0.368676 10.3009 0.346666C11.2858 0.258625 12.722 0.275127 14.0096 0.280629C15.1126 0.317694 16.2169 0.264328 17.3112 0.121058H14.5599C14.2627 0.121058 13.9491 0.121058 13.6905 0.121058C13.4318 0.121058 13.1952 0.0715347 12.9256 0.0440218C12.4799 0.0055036 11.8636 0 11.2748 0C8.13833 0 5.03486 0.0715371 1.94791 0.0550293V0.0550293Z" transform="translate(312.817 122.356)" fill="#F4F4F4"/>
<path d="M1.94792 0.0550293C1.72782 0.0550293 1.4857 0.0550293 1.32062 0.0550293C1.24549 0.0587988 1.17132 0.0736247 1.10052 0.0990426L0 0.500738C0.907928 0.500738 1.84886 0.500738 2.7788 0.500738L7.98427 0.462216C8.53453 0.462216 9.08477 0.46222 9.51397 0.423702C9.81111 0.423702 10.0312 0.368676 10.3009 0.346666C11.2858 0.258625 12.722 0.275127 14.0096 0.280629C15.1126 0.317694 16.2169 0.264328 17.3112 0.121058H14.5599C14.2627 0.121058 13.9491 0.121058 13.6905 0.121058C13.4318 0.121058 13.1952 0.0715347 12.9256 0.0440218C12.4799 0.0055036 11.8636 0 11.2748 0C8.13833 0 5.03488 0.0715371 1.94792 0.0550293V0.0550293Z" transform="translate(275.949 137.763)" fill="#F4F4F4"/>
<path d="M4.27252 59.2189H0.134556C0.134556 59.2189 -1.15854 13.9656 4.27252 0H5.30699C5.30699 0 1.6863 51.2016 4.27252 59.2189Z" transform="translate(252.941 135.193)" fill="#3B0754"/>
<path d="M13.4648 22.7422C13.4648 22.7422 10.1028 32.0526 11.6545 36.1906C11.6545 36.1906 13.9821 27.656 16.6949 26.3629C19.4076 25.0698 22.2525 36.1906 22.2525 36.1906C22.2525 36.1906 23.8042 29.2078 20.9594 23.5346C20.9594 23.5346 26.6491 26.6381 29.4939 32.5864C29.4939 32.5864 30.0111 28.7345 23.287 20.6897C23.287 20.6897 29.2353 22.2415 33.1146 25.8622C33.1146 25.8622 34.4077 23.0173 26.3904 18.3621C26.3904 18.3621 27.4249 15.0001 33.6318 16.5518C33.6318 16.5518 33.6319 12.1497 23.8042 12.9311C23.8042 12.9311 23.8042 10.0862 30.2698 10.6035C30.2698 10.6035 30.2698 6.98279 22.7697 8.2759C22.7697 8.2759 24.3215 5.9483 25.356 5.43106C24.0622 5.31144 22.7705 5.68049 21.7352 6.46555C21.7352 6.46555 21.9939 1.81035 18.1145 0L17.5973 6.46555C17.5973 6.46555 13.2502 1.34263 14.2352 2.32759C14.4938 2.58622 15.2697 5.68967 15.0111 7.24141C15.0111 7.24141 10.609 3.6207 5.18345 7.50003C5.18345 7.50003 11.9076 8.01728 12.9421 10.3449C12.9421 10.3449 7.25243 9.31039 5.95932 10.0863C5.95932 10.0863 10.3614 11.638 10.0973 12.6725C10.0973 12.6725 2.33861 12.6725 1.29311 15.5173C1.29311 15.5173 9.3104 16.5518 9.82764 17.3277C9.82764 17.3277 0.517244 24.0518 0 25.8622C0 25.8622 9.569 20.1725 11.1207 20.1725C12.6725 20.1725 4.13795 28.4264 4.65519 30.5174C4.6772 30.5009 11.682 22.225 13.4648 22.7422V22.7422Z" transform="translate(240.904 110.123)" fill="#3B0754"/>
<path d="M0.792375 45.2423H3.95086C3.95086 45.2423 4.94133 10.6695 0.792375 0H0C0 0 2.77331 39.1069 0.792375 45.2423Z" transform="translate(307.457 147.475)" fill="#3B0754"/>
<path d="M15.4018 17.3772C15.4018 17.3772 17.9715 24.492 16.7829 27.6505C16.7829 27.6505 15.0056 21.13 12.9311 20.145C10.8566 19.16 8.68311 27.6505 8.68311 27.6505C8.68311 27.6505 7.50004 22.3185 9.67357 17.9715C6.89254 19.6176 4.63245 22.0151 3.15301 24.8882C3.15301 24.8882 2.75682 21.9223 7.89624 15.7979C7.89624 15.7979 3.35109 16.981 0.390696 19.7488C0.390696 19.7488 -0.599756 17.5753 5.53013 14.0206C5.53013 14.0206 4.73773 11.4509 0 12.6395C0 12.6395 7.87152e-06 9.28287 7.50554 9.88816C7.50554 9.88816 7.50554 7.71464 2.55321 8.11082C2.55321 8.11082 2.55323 5.35953 8.28143 6.33349C8.28143 6.33349 7.09836 4.55615 6.30598 4.15996C7.28969 4.07296 8.27054 4.35544 9.05728 4.95233C9.05728 4.95233 8.85919 1.39766 11.8086 0L12.2048 4.95233C12.2048 4.95233 15.5063 1.04 14.7745 1.79385C14.3012 2.98542 14.0983 4.26713 14.1802 5.54661C14.1802 5.54661 17.5368 2.79532 21.6857 5.74471C21.6857 5.74471 16.5463 6.14089 15.7594 7.91823C15.7594 7.91823 20.1065 7.12586 21.0914 7.72014C21.0914 7.72014 17.7349 8.9032 17.933 9.69557C17.933 9.69557 23.8593 9.69557 24.6516 11.8691C24.6516 11.8691 18.5272 12.6615 18.131 13.2502C18.131 13.2502 25.2459 18.3897 25.6366 19.7708C25.6366 19.7708 18.3291 15.4238 17.1406 15.4238C15.952 15.4238 22.4726 21.7463 22.0929 23.3255C22.1204 23.3035 16.7884 16.992 15.4018 17.3772V17.3772Z" transform="translate(295.021 128.32)" fill="#3B0754"/>
<path d="M0.489739 28.0192H2.44866C2.44866 28.0192 3.05945 6.60861 0.489739 0H0C0 0 1.71131 24.2389 0.489739 28.0192Z" transform="translate(345.579 157.941)" fill="#3B0754"/>
<path d="M9.54699 10.7741C9.54699 10.7741 11.1372 15.1762 10.4054 17.1351C10.4054 17.1351 9.30486 13.0962 8.01725 12.4854C6.72964 11.8746 5.38703 17.1351 5.38703 17.1351C5.38703 17.1351 4.65517 13.8335 5.99781 11.1372C4.27564 12.156 2.87576 13.6398 1.95892 15.4183C1.95892 15.4183 1.71679 13.5804 4.89729 9.78912C3.19041 10.2642 1.60499 11.0991 0.24759 12.2378C0.24759 12.2378 -0.363182 10.8896 3.4281 8.6886C3.4281 8.6886 2.93838 7.09835 0 7.8302C0 7.8302 -2.67632e-05 5.75021 4.64966 6.11888C4.64966 6.11888 4.64967 4.77075 1.59022 5.01836C1.59022 5.01836 1.59023 3.30706 5.1394 3.91784C4.81176 3.40233 4.39867 2.94644 3.91784 2.56972C4.52941 2.51359 5.13985 2.68828 5.62914 3.05944C5.62914 3.05944 5.50808 0.858404 7.34044 0L7.58256 3.05944C7.58256 3.05944 9.64053 0.638301 9.17281 1.10052C8.87974 1.83777 8.75384 2.63084 8.80415 3.42261C9.48398 2.92707 10.3086 2.67024 11.1496 2.69214C11.9906 2.71403 12.8007 3.01342 13.4538 3.54367C13.4538 3.54367 10.2733 3.78579 9.78359 4.89181C9.78359 4.89181 12.4744 4.40208 13.0851 4.77076C13.0851 4.77076 11.0052 5.5026 11.1262 5.99233C11.1262 5.99233 14.7965 5.99232 15.2862 7.34046C15.2862 7.34046 11.4949 7.83019 11.2473 8.19886C11.2473 8.19886 15.6493 11.3794 15.897 12.2378C15.897 12.2378 11.3683 9.547 10.6365 9.547C9.90464 9.547 13.938 13.4648 13.6959 14.4388C13.7069 14.4443 10.3999 10.5265 9.54699 10.7741V10.7741Z" transform="translate(337.87 146.066)" fill="#3B0754"/>
<path d="M11.1518 9.09581L10.7391 6.89477C10.7385 6.73293 10.7051 6.5729 10.6408 6.42439C10.5764 6.27588 10.4826 6.14199 10.3649 6.03086L8.45554 5.09543C8.31485 4.93017 8.19984 4.74467 8.11438 4.54517L8.14739 4.49565C8.25253 4.365 8.32766 4.21284 8.36749 4.04994C8.37101 4.00783 8.37101 3.96549 8.36749 3.92337H8.39502C8.57126 3.94687 8.7499 3.90337 8.8956 3.80148C9.04131 3.69958 9.14347 3.54672 9.18188 3.37311V3.32359C9.14794 3.47231 9.067 3.60614 8.95104 3.70526C8.83508 3.80437 8.69026 3.86349 8.53807 3.87385C8.80382 3.69585 9.02166 3.45514 9.17233 3.173C9.323 2.89085 9.40187 2.57595 9.40198 2.25609C9.40198 2.25609 9.40198 2.20107 9.40198 2.17355C9.48628 2.12188 9.55876 2.05304 9.6147 1.97151C9.67063 1.88997 9.70877 1.79757 9.72663 1.70032V1.6508C9.70332 1.74304 9.66155 1.8296 9.60386 1.90526C9.54617 1.98092 9.47376 2.0441 9.39098 2.091C9.37767 1.90266 9.33688 1.71728 9.26993 1.54074H9.31945C9.50771 1.54074 9.68826 1.46597 9.82138 1.33285C9.9545 1.19973 10.0293 1.01918 10.0293 0.830919C10.0293 0.830919 10.0293 0.797906 10.0293 0.781398C10.0168 0.959999 9.93727 1.12728 9.80665 1.24973C9.67604 1.37218 9.50399 1.44075 9.32496 1.4417H9.23691V1.40869C9.44796 1.34529 9.6366 1.22316 9.78081 1.05654C9.92502 0.889925 10.0188 0.685702 10.0513 0.467746C10.0513 0.467746 10.0513 0.434733 10.0513 0.418225C10.0419 0.556078 9.99213 0.688119 9.90823 0.797905C9.9176 0.6216 9.86093 0.448129 9.74929 0.311357C9.63764 0.174585 9.47903 0.0843317 9.30442 0.0582088C9.12981 0.032086 8.95173 0.0719718 8.80494 0.170081C8.65815 0.26819 8.5532 0.417476 8.51057 0.588804L8.384 0.517268C8.42364 0.375513 8.50637 0.249585 8.62072 0.156916C8.73508 0.0642464 8.87541 0.00941886 9.0223 2.25193e-05H8.97278C8.82403 -0.00116207 8.67868 0.0444159 8.55723 0.130316C8.43579 0.216216 8.34438 0.338095 8.29596 0.478745C7.87063 0.281003 7.38825 0.243377 6.9374 0.372767C6.48656 0.502158 6.09753 0.789875 5.8418 1.18308C5.69323 1.29313 5.50065 1.45272 5.50615 1.59028C5.44244 1.6541 5.3853 1.72414 5.33558 1.79936C5.12608 2.25882 5.0498 2.76788 5.11546 3.26856C5.14583 3.51743 5.11567 3.76996 5.02753 4.00467C4.9394 4.23938 4.7959 4.44934 4.60923 4.61671C4.69116 4.65091 4.77907 4.66851 4.86785 4.66851C4.95664 4.66851 5.04454 4.65091 5.12647 4.61671C5.29005 4.54759 5.44364 4.4569 5.58318 4.34707C5.71339 4.26798 5.82431 4.16084 5.90783 4.03343V4.00591C5.9995 4.06714 6.09723 4.11876 6.19947 4.15998C6.23799 4.49014 6.249 4.86983 6.10043 4.99639L6.12793 4.93585C5.77325 5.20284 5.33195 5.32837 4.88985 5.28802C4.62304 5.30308 4.3647 5.38703 4.13999 5.53168C3.91529 5.67634 3.73191 5.87677 3.60775 6.11341L3.00797 8.61709V8.6611V8.70513C3.01709 8.73889 3.03521 8.76952 3.06042 8.79376C3.08562 8.81799 3.11696 8.83491 3.15105 8.84269L3.33813 8.89221C3.36637 9.31999 3.3236 9.7495 3.21157 10.1633C3.08598 10.7795 3.01418 11.4055 2.99697 12.0342C3.04099 12.3478 3.11802 13.9821 3.15654 14.758C3.08978 15.0229 3.03653 15.291 2.99697 15.5614L2.11105 20.8769C2.11105 20.8769 1.45075 25.1304 1.48376 26.418L1.36819 27.1608C1.36819 27.1608 -0.431152 29.4169 0.0970964 29.736C0.625345 30.0552 1.43973 30.1928 2.2156 28.9932C2.32076 28.7105 2.49031 28.4561 2.71083 28.2503C2.79894 28.1741 2.86743 28.0779 2.91053 27.9697C2.95362 27.8614 2.97006 27.7444 2.95845 27.6285L2.90342 27.0783L2.99697 27.1113H3.05199C3.05199 27.1113 3.93792 24.2004 3.83887 22.159C3.83887 22.159 5.48965 16.3152 6.72773 15.3963V15.3578L6.84328 15.3027L7.10739 20.9649L6.83777 27.2048L6.77725 27.579C6.77725 27.579 4.97791 29.8351 5.50615 30.1542C6.0344 30.4734 6.84877 30.611 7.62464 29.4114C7.7298 29.1287 7.89937 28.8743 8.11989 28.6685C8.20799 28.5923 8.27647 28.4961 8.31957 28.3879C8.36266 28.2796 8.3791 28.1626 8.36749 28.0467L8.28496 27.2214C8.5931 26.1704 9.38548 23.1439 9.06083 21.3886L9.61108 17.6578C10.1613 17.036 10.0898 15.4568 10.0898 15.4568C10.5245 14.5489 10.6401 10.9887 10.6401 10.9887L10.7501 9.22786C10.8325 9.22087 10.9153 9.22087 10.9977 9.22786H11.0528H11.0858V9.19485C11.1017 9.18096 11.1147 9.16415 11.1243 9.14533H11.1573V9.10132L11.1518 9.09581ZM9.61108 12.6725C9.56156 12.5514 9.50653 12.4304 9.446 12.3093H9.40198V12.2653C9.40047 12.2507 9.40047 12.2359 9.40198 12.2213V12.1773C9.42783 12.1182 9.44988 12.0575 9.46801 11.9957C9.53912 11.882 9.57546 11.75 9.57256 11.616C9.63734 11.9644 9.65033 12.3204 9.61108 12.6725ZM9.446 11.1648L9.33596 9.98722L9.36897 9.89369L9.51753 11.3904L9.446 11.1648ZM4.22955 11.3244C4.1917 11.3677 4.16333 11.4185 4.14627 11.4735C4.12922 11.5284 4.12385 11.5863 4.13051 11.6435C4.13051 11.6435 4.13051 11.6435 4.13051 11.682C4.13126 11.8011 4.14791 11.9195 4.18003 12.0342L4.00945 12.7715V11.3629C4.12247 11.2144 4.22191 11.056 4.30658 10.8897C4.32386 11.039 4.29709 11.1901 4.22955 11.3244V11.3244Z" transform="translate(263.384 152.653)" fill="url(#paint4_linear)"/>
<path d="M0.704331 0.477049C0.501846 0.91906 0.427501 1.40904 0.489739 1.89122C0.518558 2.13111 0.489083 2.3744 0.403828 2.60047C0.318573 2.82654 0.180046 3.0287 0 3.18982C0.0793097 3.22297 0.164421 3.24005 0.250377 3.24005C0.336334 3.24005 0.421428 3.22297 0.500738 3.18982C0.65833 3.12359 0.806367 3.03662 0.940939 2.9312C1.06678 2.85501 1.17395 2.7516 1.25459 2.62856C1.33068 2.43838 1.35535 2.23152 1.32613 2.02878C1.32692 1.66911 1.35822 1.31015 1.41968 0.955772C1.45269 0.735668 1.66179 0.135896 1.41968 0.0203411C1.17756 -0.0952134 0.80888 0.311971 0.704331 0.477049V0.477049Z" transform="translate(268.02 154.41)" fill="#72351C"/>
<path d="M1.48666 0.126566L1.31608 1.22708C1.31608 1.22708 -0.417236 3.42813 0.0945048 3.70876C0.606246 3.98939 1.38761 4.14896 2.13596 2.99341C2.23618 2.72154 2.39817 2.47666 2.60918 2.27808V2.27808C2.69388 2.20445 2.75961 2.1115 2.8008 2.0071C2.84198 1.9027 2.85742 1.78993 2.8458 1.6783L2.67522 0L1.48666 0.126566Z" transform="translate(263.601 178.152)" fill="#333333"/>
<path d="M1.48666 0.126566L1.31608 1.22708C1.31608 1.22708 -0.417236 3.42811 0.0945048 3.70874C0.606246 3.98937 1.38763 4.14896 2.13598 2.99341C2.2362 2.72154 2.39819 2.47665 2.60919 2.27806V2.27806C2.6939 2.20444 2.75963 2.1115 2.80081 2.0071C2.842 1.9027 2.85742 1.78991 2.8458 1.67828L2.67522 0L1.48666 0.126566Z" transform="translate(268.817 178.587)" fill="#333333"/>
<path d="M2.55835 0.517245C2.55835 0.517245 1.74397 1.10601 1.45783 3.15297L0.60494 8.27589C0.60494 8.27589 -0.115904 12.9201 0.0161582 13.8115L1.45783 14.3067C1.45783 14.3067 2.31074 11.5004 2.2172 9.547C2.2172 9.547 3.95052 3.37309 5.16659 2.94389L5.42522 8.39695L5.15009 14.5323L6.38266 14.78C6.38266 14.78 7.63174 10.8731 7.23556 8.80415L7.87937 4.40207C7.87937 4.40207 8.61672 2.05247 7.59324 0L2.55835 0.517245Z" transform="translate(265.044 165.039)" fill="#4D8AF0"/>
<g opacity="0.1">
<path opacity="0.1" d="M3.69222 0.0935515V0C2.47615 0.434705 0.742837 6.60311 0.742837 6.60311C0.713331 8.1999 0.463364 9.78496 0 11.3133L0.154055 11.3684C0.154055 11.3684 1.00696 8.56204 0.913416 6.60862C0.907913 6.61412 2.49265 1.00148 3.69222 0.0935515V0.0935515Z" transform="translate(266.391 167.972)" fill="black"/>
<path opacity="0.1" d="M1.37565 0H1.21054C1.80214 1.3794 1.89933 2.92076 1.48567 4.36355L0.841879 8.76563C1.22156 10.7245 0.115554 14.3288 0 14.7084L0.159563 14.7414C0.159563 14.7414 1.40864 10.8346 1.01246 8.76563L1.65625 4.36355C1.65625 4.36355 2.39913 2.02495 1.37565 0Z" transform="translate(271.311 165.067)" fill="black"/>
</g>
<path d="M4.68158e-05 0.214609C-0.000910803 0.256783 0.0128484 0.297981 0.0389552 0.331116C0.065062 0.364252 0.101876 0.38725 0.143103 0.396187C0.545628 0.497298 0.921217 0.685093 1.24362 0.946447C1.84891 1.41967 0.599827 0 0.599827 0L0.181625 0.0935515L0.011046 0.247623L4.68158e-05 0.214609Z" transform="translate(266.496 161.33)" fill="#F55F44"/>
<path opacity="0.1" d="M4.68158e-05 0.214609C-0.000910803 0.256783 0.0128484 0.297981 0.0389552 0.331116C0.065062 0.364252 0.101876 0.38725 0.143103 0.396187C0.545628 0.497298 0.921217 0.685093 1.24362 0.946447C1.84891 1.41967 0.599827 0 0.599827 0L0.181625 0.0935515L0.011046 0.247623L4.68158e-05 0.214609Z" transform="translate(266.496 161.33)" fill="black"/>
<path d="M0 0.949562C0.508973 0.588176 1.09815 0.355898 1.71681 0.272737C1.73776 0.272737 1.7585 0.268616 1.77786 0.260596C1.79722 0.252577 1.81482 0.240821 1.82964 0.226003C1.84445 0.211185 1.85621 0.193592 1.86423 0.174232C1.87225 0.154871 1.87637 0.13413 1.87637 0.113174V0.113174C1.87637 0.113174 0.434705 -0.453599 0 0.949562V0.949562Z" transform="translate(272.45 161.85)" fill="#F55F44"/>
<path opacity="0.1" d="M1.87637 0.107736C1.87637 0.107736 0.434705 -0.442529 0 0.944124C0 0.944124 1.06199 0.129746 1.79934 0.261808" transform="translate(272.45 161.85)" fill="black"/>
<path d="M1.87639 3.75277C2.91268 3.75277 3.75277 2.91268 3.75277 1.87639C3.75277 0.840088 2.91268 0 1.87639 0C0.840088 0 0 0.840088 0 1.87639C0 2.91268 0.840088 3.75277 1.87639 3.75277Z" transform="translate(268.901 153.451)" fill="#72351C"/>
<path d="M0.540991 1.00697C0.540991 1.00697 0.805115 2.10749 0.540991 2.33309C0.276866 2.5587 -0.256886 2.9769 0.144803 3.30156C0.546493 3.62621 1.98266 4.17645 2.46139 3.90683C2.94012 3.6372 3.48489 3.71974 3.35282 3.16948C3.22076 2.61922 2.17526 2.73479 2.15875 0L0.540991 1.00697Z" transform="translate(268.943 155.635)" fill="#FDB797"/>
<path opacity="0.1" d="M0.324668 0C0.363948 0.596776 0.325089 1.19612 0.209101 1.78283C0.0874749 2.37544 0.0175102 2.97749 0 3.58219C0.0550259 3.97838 0.170596 6.5976 0.170596 6.5976C0.170596 6.5976 -0.038506 8.89219 1.07852 8.68309C2.19555 8.47399 0.907941 6.06387 0.907941 6.06387L0.962954 2.93289C1.26593 2.52134 1.45566 2.03751 1.51321 1.52972C1.59575 0.775865 0.324668 0 0.324668 0V0Z" transform="translate(266.502 161.215)" fill="black"/>
<path d="M0.324668 0C0.363948 0.596776 0.325089 1.19612 0.209101 1.78283C0.0874749 2.37544 0.0175102 2.97749 0 3.58219C0.0550259 3.97838 0.170596 6.5976 0.170596 6.5976C0.170596 6.5976 -0.038506 8.89219 1.07852 8.68309C2.19555 8.47399 0.907941 6.06387 0.907941 6.06387L0.962954 2.93289C1.26593 2.52134 1.45566 2.03751 1.51321 1.52972C1.59025 0.775865 0.324668 0 0.324668 0V0Z" transform="translate(266.485 161.215)" fill="#FDB797"/>
<path opacity="0.1" d="M2.12742 0L1.97335 2.44866C1.97335 2.44866 1.87981 5.88228 1.46161 6.75169C1.46161 6.75169 1.57715 9.16182 0.454625 9.10129C-0.667904 9.04076 0.641711 6.46555 0.641711 6.46555C0.641711 6.46555 1.24149 3.78578 0.933348 2.93838L0.641711 0H2.12742Z" transform="translate(271.83 161.386)" fill="black"/>
<path d="M2.12742 0L1.97335 2.44866C1.97335 2.44866 1.87981 5.88228 1.46161 6.75169C1.46161 6.75169 1.57715 9.16182 0.454625 9.10129C-0.667904 9.04076 0.641711 6.46555 0.641711 6.46555C0.641711 6.46555 1.24149 3.78578 0.933348 2.93838L0.641711 0H2.12742Z" transform="translate(271.847 161.386)" fill="#FDB797"/>
<path opacity="0.1" d="M3.89583 1.03449C3.89583 1.03449 4.80377 1.45269 5.299 0.209101L7.14237 1.11153C7.25573 1.2193 7.34591 1.34905 7.40741 1.49286C7.46891 1.63667 7.50043 1.79151 7.50004 1.94792L7.89622 4.07193C7.89622 4.07193 6.54809 3.61521 6.1299 4.8698L6.24545 6.06387C6.33231 6.35871 6.31084 6.67489 6.18491 6.95529C6.17384 6.98043 6.16813 7.0076 6.16813 7.03507C6.16813 7.06254 6.17384 7.08972 6.18491 7.11487C6.21244 7.2018 6.21922 7.29398 6.20467 7.384C6.19013 7.47402 6.15467 7.55938 6.10116 7.63322C6.04766 7.70706 5.97758 7.76733 5.89656 7.80919C5.81554 7.85104 5.72584 7.8733 5.63465 7.87421C5.13924 7.87991 4.64475 7.91852 4.15445 7.98978C3.75826 8.10533 2.5587 7.76417 2.16251 7.98978C1.76633 8.21538 0.92994 7.8192 0.92994 7.8192L1.15555 6.85073C1.15555 6.85073 1.00148 6.3775 1.19407 6.20692C1.38666 6.03634 1.2711 4.55616 1.10052 4.13796C1.10052 4.13796 0.418197 3.49416 0 3.5877L0.550259 1.13904C0.668995 0.910671 0.845016 0.717063 1.06109 0.577195C1.27716 0.437326 1.52587 0.355987 1.78283 0.341158C2.20938 0.379347 2.63492 0.257769 2.9769 0C2.9769 0 2.5642 0.902428 3.89583 1.03449V1.03449Z" transform="translate(266.441 157.979)" fill="black"/>
<path opacity="0.1" d="M3.98938 1.05651C4.237 1.12254 4.8973 1.19407 5.29349 0.198102L7.13686 1.10052C7.25022 1.20828 7.3404 1.33803 7.4019 1.48184C7.4634 1.62566 7.49492 1.78052 7.49453 1.93692L7.89072 4.06092C7.89072 4.06092 6.54258 3.60421 6.12439 4.8588L6.23994 6.05285L6.31698 6.28946C6.35007 6.3906 6.35884 6.49813 6.34259 6.6033C6.32634 6.70846 6.28551 6.80831 6.22343 6.89475C6.19742 6.92436 6.18007 6.96057 6.17327 6.9994C6.16648 7.03823 6.1705 7.07816 6.18491 7.11485C6.21244 7.20178 6.21922 7.29398 6.20467 7.384C6.19013 7.47402 6.15467 7.55938 6.10116 7.63322C6.04766 7.70706 5.97758 7.76733 5.89656 7.80919C5.81554 7.85104 5.72584 7.8733 5.63465 7.87421C5.13924 7.87991 4.64475 7.91852 4.15445 7.98978C3.75826 8.10533 2.5587 7.76417 2.16251 7.98978C1.76633 8.21538 0.929939 7.81918 0.929939 7.81918L1.15555 6.85073C1.15555 6.85073 1.00148 6.3775 1.19407 6.20692C1.38666 6.03634 1.2711 4.55616 1.10052 4.13796C1.10052 4.13796 0.418197 3.49416 0 3.5877L0.550259 1.13904C0.668995 0.910671 0.845016 0.717063 1.06109 0.577195C1.27716 0.437326 1.52587 0.355987 1.78283 0.341158C2.20938 0.379347 2.63492 0.257769 2.9769 0C2.9769 0 2.5312 0.814394 3.70325 0.990477L3.98938 1.05651Z" transform="translate(266.441 157.913)" fill="black"/>
<path d="M3.99489 1.06749C4.2425 1.13352 4.90281 1.20505 5.299 0.209084L7.14237 1.11152C7.25573 1.21928 7.34591 1.34903 7.40741 1.49284C7.46891 1.63665 7.50043 1.7915 7.50004 1.94791L7.89622 4.07192C7.89622 4.07192 6.54809 3.61519 6.1299 4.86978L6.24545 6.06385C6.33231 6.35869 6.31085 6.67488 6.18493 6.95527C6.17386 6.98041 6.16813 7.00758 6.16813 7.03505C6.16813 7.06252 6.17386 7.0897 6.18493 7.11485C6.21246 7.20178 6.21922 7.29396 6.20467 7.38398C6.19013 7.47401 6.15469 7.55936 6.10118 7.6332C6.04767 7.70704 5.97758 7.76732 5.89656 7.80917C5.81554 7.85102 5.72585 7.8733 5.63467 7.87421C5.13925 7.87991 4.64476 7.91851 4.15447 7.98976C3.75828 8.10531 2.55872 7.76415 2.16253 7.98976C1.76635 8.21537 0.92994 7.81918 0.92994 7.81918L1.15555 6.85072C1.15555 6.85072 1.00148 6.3775 1.19407 6.20692C1.38666 6.03634 1.2711 4.55614 1.10052 4.13794C1.10052 4.13794 0.418197 3.49414 0 3.58768L0.550259 1.13902C0.668995 0.910654 0.845033 0.717047 1.06111 0.577178C1.27718 0.437309 1.52589 0.355987 1.78285 0.341158C2.2094 0.379347 2.63492 0.257769 2.9769 0C2.9769 0 2.5312 0.814377 3.70325 0.99046L3.99489 1.06749Z" transform="translate(266.436 157.941)" fill="#F55F44"/>
<path opacity="0.1" d="M1.61226 0L0 1.00697C0.0409377 1.18859 0.0721708 1.37227 0.0935515 1.55723C0.277365 1.63041 0.473471 1.66777 0.671317 1.66728C1.06519 1.63965 1.43612 1.47175 1.71681 1.19405C1.64389 0.800287 1.60888 0.400447 1.61226 0V0Z" transform="translate(269.517 155.734)" fill="black"/>
<path d="M1.55723 3.11447C2.41726 3.11447 3.11445 2.41728 3.11445 1.55724C3.11445 0.697207 2.41726 0 1.55723 0C0.69719 0 0 0.697207 0 1.55724C0 2.41728 0.69719 3.11447 1.55723 3.11447Z" transform="translate(268.598 154.166)" fill="#FDB797"/>
<path d="M0.682316 1.36463C1.05915 1.36463 1.36463 1.05915 1.36463 0.682316C1.36463 0.30548 1.05915 0 0.682316 0C0.30548 0 0 0.30548 0 0.682316C0 1.05915 0.30548 1.36463 0.682316 1.36463Z" transform="translate(271.768 153.165)" fill="#72351C"/>
<path d="M0.682316 0.632795C0.509615 0.63325 0.343167 0.5682 0.21654 0.450763C0.0899133 0.333327 0.0125342 0.172246 0 0C0 0 0 0.0330135 0 0.0495213C0 0.230484 0.0718716 0.404029 0.199832 0.531989C0.327792 0.659949 0.501353 0.731837 0.682316 0.731837C0.863279 0.731837 1.03682 0.659949 1.16478 0.531989C1.29274 0.404029 1.36463 0.230484 1.36463 0.0495213C1.36463 0.0495213 1.36463 0.0165078 1.36463 0C1.3521 0.172246 1.27472 0.333327 1.14809 0.450763C1.02146 0.5682 0.855017 0.63325 0.682316 0.632795Z" transform="translate(271.9 153.935)" fill="#72351C"/>
<path d="M0.561613 0.748361C0.392354 0.716145 0.241549 0.621078 0.139481 0.482266C0.0374132 0.343454 -0.0083593 0.171167 0.0113535 0V0.0440301C-0.00492913 0.132198 -0.00368843 0.222707 0.0150142 0.310394C0.0337169 0.398081 0.0695143 0.481227 0.120354 0.555079C0.171194 0.62893 0.236085 0.692035 0.311319 0.740805C0.386554 0.789575 0.470653 0.823049 0.558825 0.83931C0.646997 0.855571 0.737507 0.854306 0.825189 0.835582C0.912871 0.816858 0.996001 0.781049 1.06984 0.730192C1.14368 0.679334 1.20678 0.614423 1.25553 0.539176C1.30428 0.46393 1.33775 0.37983 1.35399 0.291654V0.242115C1.31203 0.412012 1.20638 0.559298 1.05891 0.653517C0.911435 0.747736 0.733411 0.781692 0.561613 0.748361Z" transform="translate(271.63 154.469)" fill="#72351C"/>
<path d="M0.561552 0.748361C0.392292 0.716145 0.241487 0.621078 0.13942 0.482266C0.0373521 0.343454 -0.00842036 0.171167 0.0112924 0V0.0440301C-0.0214954 0.222054 0.0177815 0.405815 0.120461 0.554894C0.22314 0.703973 0.380815 0.80616 0.558831 0.838991C0.736847 0.871822 0.920625 0.8326 1.06973 0.729957C1.21883 0.627313 1.32105 0.469662 1.35393 0.291654V0.242115C1.31197 0.412012 1.20634 0.559298 1.05886 0.653517C0.911391 0.747736 0.73335 0.781692 0.561552 0.748361V0.748361Z" transform="translate(271.101 156.12)" fill="#72351C"/>
<path d="M0.682316 0.638303C0.508728 0.638664 0.341527 0.572844 0.21476 0.454256C0.0879937 0.335668 0.0111989 0.173227 0 0C0 0 0 0.0330135 0 0.0495213C0 0.230484 0.0718716 0.404029 0.199832 0.531989C0.327792 0.659949 0.501353 0.731837 0.682316 0.731837C0.863279 0.731837 1.03682 0.659949 1.16478 0.531989C1.29274 0.404029 1.36463 0.230484 1.36463 0.0495213C1.36463 0.0495213 1.36463 0.0165078 1.36463 0C1.35343 0.173227 1.27664 0.335668 1.14987 0.454256C1.02311 0.572844 0.855904 0.638664 0.682316 0.638303V0.638303Z" transform="translate(271.9 153.566)" fill="#72351C"/>
<path d="M0.0880435 0.676808C0.0891665 0.503277 0.156367 0.336701 0.275969 0.210965C0.395572 0.0852293 0.558596 0.00979268 0.731854 0H0.682333C0.50137 0 0.327809 0.0718884 0.199849 0.199849C0.0718884 0.327809 0 0.501353 0 0.682316C0 0.863279 0.0718884 1.03682 0.199849 1.16478C0.327809 1.29274 0.50137 1.36463 0.682333 1.36463H0.731854C0.556694 1.35474 0.392079 1.27776 0.272191 1.14967C0.152303 1.02159 0.0863494 0.852239 0.0880435 0.676808V0.676808Z" transform="translate(271.542 153.159)" fill="#72351C"/>
<path opacity="0.1" d="M0.0290593 0C0.100824 0.337387 0.100824 0.686087 0.0290593 1.02347C0.0290593 1.02347 -0.0644814 1.91491 0.0840886 2.06898" transform="translate(272.289 160.274)" fill="black"/>
<path opacity="0.1" d="M0.0290593 0C0.100824 0.337387 0.100824 0.686087 0.0290593 1.02347C0.0290593 1.02347 -0.0644814 1.91489 0.0840886 2.06896" transform="translate(267.677 160.483)" fill="black"/>
<path opacity="0.1" d="M0 0.0408723C0.14764 0.0937888 0.309068 0.0937888 0.456708 0.0408723C0.63608 -0.0136241 0.827595 -0.0136241 1.00697 0.0408723" transform="translate(267.668 164.101)" fill="black"/>
<path opacity="0.1" d="M0 0.247623C0.535977 0.273266 1.07154 0.188993 1.57375 0C1.57375 0 3.51066 0.473234 4.06092 0.132074" transform="translate(267.899 162.552)" fill="black"/>
<path d="M0.825389 0H0.368681C0.165068 0 0 0.165068 0 0.368681C0 0.572294 0.165068 0.737345 0.368681 0.737345H0.825389C1.029 0.737345 1.19407 0.572294 1.19407 0.368681C1.19407 0.165068 1.029 0 0.825389 0Z" transform="translate(266.491 170.977)" fill="#FDB797"/>
<path d="M0 0.0275062L0.638303 0L1.18856 0.0880267H0.995968L0 0.0275062Z" transform="translate(266.496 171.147)" fill="#F0E4E4"/>
<path d="M0 0H0.638286L1.18855 0.0550293H0.995968L0 0Z" transform="translate(270.799 168.088)" fill="#F0E4E4"/>
<path d="M0 0H0.638286L1.18855 0.0550293H0.995968L0 0Z" transform="translate(270.799 168.22)" fill="#F0E4E4"/>
<path d="M0 0H0.638286L1.18855 0.0550293H0.995968L0 0Z" transform="translate(270.799 168.357)" fill="#F0E4E4"/>
<path d="M0 0H0.638286L1.18855 0.0550293H0.995968L0 0Z" transform="translate(270.799 168.489)" fill="#F0E4E4"/>
<path d="M0 0H0.638303L1.18856 0.0660284H0.995968L0 0Z" transform="translate(266.496 171.686)" fill="#F0E4E4"/>
<path d="M0 0H0.638303L1.18856 0.0660284H0.995968L0 0Z" transform="translate(266.496 171.62)" fill="#F0E4E4"/>
<path d="M0 0H0.638303L1.18856 0.0660284H0.995968L0 0Z" transform="translate(266.496 171.554)" fill="#F0E4E4"/>
<path d="M0 0H0.638303L1.18856 0.0660284H0.995968L0 0Z" transform="translate(266.496 171.488)" fill="#F0E4E4"/>
<path d="M0 0.027523L0.638303 0L1.18856 0.0880435H0.995968L0 0.027523Z" transform="translate(266.496 171.048)" fill="#F0E4E4"/>
<path d="M0 0.0275062L0.638303 0L1.18856 0.0880435H0.995968L0 0.0275062Z" transform="translate(266.496 170.932)" fill="#F0E4E4"/>
<path opacity="0.1" d="M0.0205344 0.711536C-0.0404667 1.29313 0.0348904 1.88096 0.240635 2.42836C0.342722 2.69407 0.388115 2.97817 0.373901 3.26246C0.359686 3.54675 0.286182 3.82494 0.158099 4.07914C0.242641 4.09855 0.33057 4.09771 0.414723 4.07667C0.498876 4.05563 0.576855 4.015 0.642313 3.95808C0.779075 3.8383 0.897711 3.69928 0.994487 3.54538C1.09672 3.41984 1.17 3.27329 1.2091 3.11618C1.22578 2.86894 1.18821 2.62104 1.09904 2.38984C0.9923 1.96836 0.915069 1.53994 0.867922 1.10772C0.834906 0.843599 0.867934 0.0842411 0.570794 0.00720485C0.273654 -0.0698314 0.0755603 0.491432 0.0205344 0.711536V0.711536Z" transform="translate(270.399 154.016)" fill="black"/>
<path d="M0.0205322 0.711599C-0.0404689 1.2932 0.034905 1.88102 0.240649 2.42842C0.342737 2.69413 0.38813 2.97824 0.373915 3.26253C0.359701 3.54681 0.28618 3.825 0.158097 4.0792C0.242639 4.09862 0.330585 4.09777 0.414738 4.07673C0.498891 4.05569 0.576869 4.01506 0.642328 3.95814C0.779089 3.83836 0.897726 3.69935 0.994502 3.54545C1.09674 3.41991 1.17 3.27336 1.20909 3.11625C1.22578 2.86901 1.18823 2.6211 1.09905 2.3899C0.992314 1.96842 0.915083 1.54001 0.867936 1.10779C0.834921 0.843662 0.867932 0.0843039 0.570792 0.00726759C0.273651 -0.0697687 0.0755581 0.485992 0.0205322 0.711599V0.711599Z" transform="translate(270.437 153.999)" fill="#72351C"/>
<path opacity="0.1" d="M0.88899 1.47351C1.02105 1.61108 1.04858 1.81467 1.15863 1.96874C1.25642 2.07366 1.37619 2.15567 1.50936 2.20894C1.64253 2.26221 1.78581 2.28541 1.92899 2.27688C2.00728 2.27275 2.08524 2.28985 2.1546 2.32641C2.27565 2.40344 2.28115 2.57952 2.35819 2.70058C2.39938 2.74473 2.44921 2.77995 2.50459 2.80402C2.55997 2.82809 2.6197 2.84053 2.68009 2.84053C2.74047 2.84053 2.80021 2.82809 2.85559 2.80402C2.91096 2.77995 2.96081 2.74473 3.002 2.70058C3.16091 2.51073 3.24848 2.27134 3.24961 2.02377C3.27611 1.75112 3.27611 1.47652 3.24961 1.20387C3.24219 0.891643 3.11857 0.593414 2.90294 0.367484C2.72232 0.233715 2.51334 0.143332 2.29216 0.103353C1.99035 -0.0032549 1.66568 -0.0279239 1.35122 0.0318337C1.1987 0.0826489 1.05419 0.154898 0.922021 0.246426C0.734933 0.367483 0.551513 0.490382 0.371762 0.615107C0.168166 0.758175 -0.217024 1.04431 0.157152 1.19838C0.393764 1.30843 0.690896 1.25891 0.88899 1.47351V1.47351Z" transform="translate(268.898 153.645)" fill="black"/>
<path d="M0.888993 1.47351C1.02106 1.61107 1.04858 1.81466 1.15863 1.96874C1.25643 2.07365 1.37618 2.15569 1.50934 2.20895C1.64251 2.26222 1.78582 2.28541 1.92899 2.27688C2.00728 2.27274 2.08524 2.28985 2.1546 2.3264C2.27566 2.40344 2.28116 2.57953 2.35819 2.70059C2.39938 2.74475 2.44921 2.77996 2.50459 2.80403C2.55997 2.82811 2.61971 2.84052 2.68009 2.84052C2.74047 2.84052 2.80021 2.82811 2.85559 2.80403C2.91097 2.77996 2.9608 2.74475 3.00199 2.70059C3.16089 2.51074 3.24848 2.27134 3.24961 2.02376C3.27611 1.75111 3.27611 1.47654 3.24961 1.20388C3.24219 0.891655 3.11858 0.59341 2.90294 0.367479C2.72233 0.23371 2.51334 0.143344 2.29216 0.103365C1.99036 -0.00324297 1.66567 -0.0279288 1.35121 0.0318289C1.19869 0.082644 1.05417 0.154893 0.922008 0.246421C0.73492 0.367478 0.5515 0.490377 0.371748 0.615102C0.168153 0.75817 -0.21702 1.0443 0.157156 1.19838C0.393768 1.30843 0.707408 1.26441 0.888993 1.47351V1.47351Z" transform="translate(268.936 153.623)" fill="#72351C"/>
<path d="M0 0H0.638303L1.18856 0.0550293H1.00698L0 0Z" transform="translate(270.838 168.088)" fill="#F0E4E4"/>
<path d="M0 0H0.638303L1.18856 0.0550293H1.00698L0 0Z" transform="translate(270.838 168.22)" fill="#F0E4E4"/>
<path d="M0 0H0.638303L1.18856 0.0550293H1.00698L0 0Z" transform="translate(270.838 168.357)" fill="#F0E4E4"/>
<path d="M0 0H0.638303L1.18856 0.0550293H1.00698L0 0Z" transform="translate(270.838 168.489)" fill="#F0E4E4"/>
<path d="M0 0H0.638303L1.18856 0.0550293H0.995968L0 0Z" transform="translate(270.562 175.791)" fill="#F0E4E4"/>
<path d="M0 0H0.638303L1.18856 0.0550293H0.995968L0 0Z" transform="translate(270.562 175.929)" fill="#F0E4E4"/>
<path d="M0 0H0.638303L1.18856 0.0550293H0.995968L0 0Z" transform="translate(270.562 176.061)" fill="#F0E4E4"/>
<path d="M0 0H0.638303L1.18856 0.0550293H0.995968L0 0Z" transform="translate(270.562 176.193)" fill="#F0E4E4"/>
<path d="M0 0H116V51" transform="translate(424 16)" stroke="#3AD29F" stroke-width="2" stroke-miterlimit="10" stroke-dasharray="12 12"/>
<defs>
<linearGradient id="paint0_linear" x2="1" gradientUnits="userSpaceOnUse" gradientTransform="translate(-40.4623 179.69) scale(181.47 179.695) rotate(-90)">
<stop stop-color="#808080" stop-opacity="0.25"/>
<stop offset="0.54" stop-color="#808080" stop-opacity="0.12"/>
<stop offset="1" stop-color="#808080" stop-opacity="0.1"/>
</linearGradient>
<linearGradient id="paint1_linear" x2="1" gradientUnits="userSpaceOnUse" gradientTransform="translate(41325.2 110344) scale(38020.6 67957.1) rotate(-90)">
<stop stop-color="#808080" stop-opacity="0.25"/>
<stop offset="0.54" stop-color="#808080" stop-opacity="0.12"/>
<stop offset="1" stop-color="#808080" stop-opacity="0.1"/>
</linearGradient>
<linearGradient id="paint2_linear" x2="1" gradientUnits="userSpaceOnUse" gradientTransform="translate(81899.3 141681) scale(38020.6 67957.1) rotate(-90)">
<stop stop-color="#808080" stop-opacity="0.25"/>
<stop offset="0.54" stop-color="#808080" stop-opacity="0.12"/>
<stop offset="1" stop-color="#808080" stop-opacity="0.1"/>
</linearGradient>
<linearGradient id="paint3_linear" x2="1" gradientUnits="userSpaceOnUse" gradientTransform="translate(76308 134936) scale(198080 134936) rotate(-90)">
<stop stop-color="#808080" stop-opacity="0.25"/>
<stop offset="0.54" stop-color="#808080" stop-opacity="0.12"/>
<stop offset="1" stop-color="#808080" stop-opacity="0.1"/>
</linearGradient>
<linearGradient id="paint4_linear" x2="1" gradientUnits="userSpaceOnUse" gradientTransform="translate(7255.82 14425) scale(617.446 1681.02) rotate(-90)">
<stop stop-color="#808080" stop-opacity="0.25"/>
<stop offset="0.54" stop-color="#808080" stop-opacity="0.12"/>
<stop offset="1" stop-color="#808080" stop-opacity="0.1"/>
</linearGradient>
</defs>
</svg>
