<svg  viewBox="0 0 488 371" fill="none" xmlns="http://www.w3.org/2000/svg">
<path d="M96.7161 0H3.81951C1.71005 0 0 1.69333 0 3.78215V175.913C0 178.002 1.71005 179.695 3.81951 179.695H96.7161C98.8255 179.695 100.536 178.002 100.536 175.913V3.78215C100.536 1.69333 98.8255 0 96.7161 0Z" fill="url(#paint0_linear)"/>
<path d="M91.2747 0H6.54499C2.93029 0 0 2.90163 0 6.48097V168.358C0 171.937 2.93029 174.839 6.54499 174.839H91.2747C94.8894 174.839 97.8197 171.937 97.8197 168.358V6.48097C97.8197 2.90163 94.8894 0 91.2747 0Z" transform="translate(1.3623 2.42719)" fill="white"/>
<path d="M71.0304 0C70.7412 1.84898 69.7949 3.535 68.3619 4.75451C66.9289 5.97402 65.1033 6.6469 63.2138 6.65203H29.4284C27.539 6.6469 25.7134 5.97402 24.2804 4.75451C22.8474 3.535 21.9011 1.84898 21.6119 0H3.71394C2.72894 0 1.78429 0.387461 1.08779 1.07715C0.391288 1.76684 0 2.70225 0 3.67762V162.376C0 163.351 0.391288 164.287 1.08779 164.976C1.78429 165.666 2.72894 166.054 3.71394 166.054H89.197C90.182 166.054 91.1267 165.666 91.8232 164.976C92.5197 164.287 92.911 163.351 92.911 162.376V3.67762C92.911 2.70308 92.5204 1.76838 91.8249 1.07883C91.1294 0.389276 90.186 0.0012591 89.2018 0H71.0304Z" transform="translate(3.81464 6.82309)" fill="#FAFAFA"/>
<path d="M21.1177 0H0.681372C0.305062 0 0 0.302076 0 0.674706C0 1.04734 0.305062 1.34941 0.681372 1.34941H21.1177C21.494 1.34941 21.799 1.04734 21.799 0.674706C21.799 0.302076 21.494 0 21.1177 0Z" transform="translate(39.5098 8.90417)" fill="#DBDBDB"/>
<path d="M0.815463 1.61498C1.26583 1.61498 1.63093 1.25345 1.63093 0.807488C1.63093 0.361524 1.26583 0 0.815463 0C0.365094 0 0 0.361524 0 0.807488C0 1.25345 0.365094 1.61498 0.815463 1.61498Z" transform="translate(65.1236 8.63809)" fill="#DBDBDB"/>
<path d="M96.7161 0H3.81952C1.71006 0 0 1.69333 0 3.78216V175.913C0 178.002 1.71006 179.695 3.81952 179.695H96.7161C98.8255 179.695 100.536 178.002 100.536 175.913V3.78216C100.536 1.69333 98.8255 0 96.7161 0Z" transform="translate(193.787 83.2596)" fill="url(#paint1_linear)"/>
<path d="M91.2747 0H6.54498C2.93028 0 0 2.90163 0 6.48097V168.358C0 171.937 2.93028 174.839 6.54498 174.839H91.2747C94.8894 174.839 97.8197 171.937 97.8197 168.358V6.48097C97.8197 2.90163 94.8894 0 91.2747 0Z" transform="translate(195.145 85.6876)" fill="white"/>
<path d="M71.0304 0C70.7474 1.85418 69.8038 3.54693 68.3702 4.77219C66.9366 5.99745 65.1076 6.67435 63.2138 6.68053H29.4284C27.5347 6.67435 25.7057 5.99745 24.2721 4.77219C22.8384 3.54693 21.8949 1.85418 21.6119 0H3.71395C2.72895 0 1.78429 0.387458 1.08779 1.07715C0.391292 1.76683 0 2.70226 0 3.67762V162.4C0 163.375 0.391292 164.311 1.08779 165C1.78429 165.69 2.72895 166.077 3.71395 166.077H89.1923C89.682 166.08 90.1675 165.988 90.6209 165.804C91.0742 165.621 91.4865 165.35 91.8339 165.009C92.1813 164.667 92.457 164.26 92.6452 163.813C92.8333 163.365 92.9302 162.885 92.9302 162.4V3.70137C92.9302 2.72601 92.5389 1.79059 91.8424 1.1009C91.1459 0.411216 90.2012 0.0237514 89.2162 0.0237514L71.0304 0Z" transform="translate(197.602 90.0732)" fill="#FAFAFA"/>
<path d="M21.1177 0H0.681361C0.305051 0 0 0.302075 0 0.674705C0 1.04733 0.305051 1.34941 0.681361 1.34941H21.1177C21.494 1.34941 21.799 1.04733 21.799 0.674705C21.799 0.302075 21.494 0 21.1177 0Z" transform="translate(233.292 92.1638)" fill="#DBDBDB"/>
<path d="M0.81547 1.61497C1.26584 1.61497 1.63091 1.25345 1.63091 0.807487C1.63091 0.361524 1.26584 0 0.81547 0C0.365102 0 0 0.361524 0 0.807487C0 1.25345 0.365102 1.61497 0.81547 1.61497Z" transform="translate(258.906 91.8978)" fill="#DBDBDB"/>
<g opacity="0.8">
<path opacity="0.8" d="M2.87811 0V2.84996H0" transform="translate(235.087 138.7)" stroke="#664476" stroke-width="2" stroke-miterlimit="10"/>
<path opacity="0.8" d="M15.6139 0H0" transform="translate(215.01 141.55)" stroke="#664476" stroke-width="2" stroke-miterlimit="10" stroke-dasharray="9.3 9.3"/>
<path opacity="0.8" d="M2.87811 2.84996H0V0" transform="translate(209.905 138.7)" stroke="#664476" stroke-width="2" stroke-miterlimit="10"/>
<path opacity="0.8" d="M0 9.65495V0" transform="translate(209.905 122.611)" stroke="#664476" stroke-width="2" stroke-miterlimit="10" stroke-dasharray="13.55 13.55"/>
<path opacity="0.8" d="M0 2.84996V0H2.87811" transform="translate(209.905 116.544)" stroke="#664476" stroke-width="2" stroke-miterlimit="10"/>
<path opacity="0.8" d="M0 0H15.6139" transform="translate(217.242 116.544)" stroke="#664476" stroke-width="2" stroke-miterlimit="10" stroke-dasharray="9.3 9.3"/>
<path opacity="0.8" d="M0 0H2.87811V2.84996" transform="translate(235.087 116.544)" stroke="#664476" stroke-width="2" stroke-miterlimit="10"/>
<path opacity="0.8" d="M0 0V9.65495" transform="translate(237.966 125.828)" stroke="#664476" stroke-width="2" stroke-miterlimit="10" stroke-dasharray="13.55 13.55"/>
</g>
<g opacity="0.8">
<path opacity="0.8" d="M2.87811 0V2.84996H0" transform="translate(276.871 233.187)" stroke="#664476" stroke-width="2" stroke-miterlimit="10"/>
<path opacity="0.8" d="M15.6139 0H0" transform="translate(256.795 236.038)" stroke="#664476" stroke-width="2" stroke-miterlimit="10" stroke-dasharray="9.3 9.3"/>
<path opacity="0.8" d="M2.87811 2.84996H0V0" transform="translate(251.685 233.187)" stroke="#664476" stroke-width="2" stroke-miterlimit="10"/>
<path opacity="0.8" d="M0 9.65495V0" transform="translate(251.689 217.094)" stroke="#664476" stroke-width="2" stroke-miterlimit="10" stroke-dasharray="13.55 13.55"/>
<path opacity="0.8" d="M0 2.84996V0H2.87811" transform="translate(251.685 211.026)" stroke="#664476" stroke-width="2" stroke-miterlimit="10"/>
<path opacity="0.8" d="M0 0H15.6139" transform="translate(259.026 211.026)" stroke="#664476" stroke-width="2" stroke-miterlimit="10" stroke-dasharray="9.3 9.3"/>
<path opacity="0.8" d="M0 0H2.87811V2.84996" transform="translate(276.871 211.026)" stroke="#664476" stroke-width="2" stroke-miterlimit="10"/>
<path opacity="0.8" d="M0 0V9.65019" transform="translate(279.75 220.315)" stroke="#664476" stroke-width="2" stroke-miterlimit="10" stroke-dasharray="13.55 13.55"/>
</g>
<g opacity="0.8">
<path opacity="0.8" d="M0 0H70.1619" transform="translate(209.747 154.674)" stroke="#664476" stroke-width="2" stroke-miterlimit="10" stroke-dasharray="12 12"/>
<path opacity="0.8" d="M0 0H70.1619" transform="translate(209.747 168.572)" stroke="#664476" stroke-width="2" stroke-miterlimit="10" stroke-dasharray="12 12"/>
<path opacity="0.8" d="M0 0H70.1619" transform="translate(209.747 182.465)" stroke="#664476" stroke-width="2" stroke-miterlimit="10" stroke-dasharray="12 12"/>
<path opacity="0.8" d="M0 0H70.1619" transform="translate(209.747 196.358)" stroke="#664476" stroke-width="2" stroke-miterlimit="10" stroke-dasharray="12 12"/>
</g>
<path d="M96.7161 0H3.81952C1.71006 0 0 1.69332 0 3.78215V175.913C0 178.002 1.71006 179.695 3.81952 179.695H96.7161C98.8255 179.695 100.536 178.002 100.536 175.913V3.78215C100.536 1.69332 98.8255 0 96.7161 0Z" transform="translate(387.435 166.125)" fill="url(#paint2_linear)"/>
<path d="M91.2747 0H6.54499C2.9303 0 0 2.90164 0 6.48098V168.358C0 171.937 2.9303 174.839 6.54499 174.839H91.2747C94.8894 174.839 97.8197 171.937 97.8197 168.358V6.48098C97.8197 2.90164 94.8894 0 91.2747 0Z" transform="translate(388.793 168.553)" fill="white"/>
<path d="M71.0304 0C70.7474 1.85418 69.8038 3.54694 68.3702 4.7722C66.9366 5.99746 65.1076 6.67437 63.2138 6.68055H29.4284C27.5347 6.67437 25.7057 5.99746 24.272 4.7722C22.8384 3.54694 21.8948 1.85418 21.6119 0H3.71394C2.72894 0 1.78428 0.387465 1.08778 1.07715C0.391277 1.76684 0 2.70226 0 3.67763V162.376C0 163.351 0.391277 164.287 1.08778 164.976C1.78428 165.666 2.72894 166.054 3.71394 166.054H89.197C90.182 166.054 91.1267 165.666 91.8232 164.976C92.5197 164.287 92.911 163.351 92.911 162.376V3.67763C92.911 2.70226 92.5197 1.76684 91.8232 1.07715C91.1267 0.387465 90.182 0 89.197 0H71.0304Z" transform="translate(391.25 172.938)" fill="#FAFAFA"/>
<path d="M21.1177 0H0.681361C0.305051 0 0 0.302082 0 0.674712C0 1.04734 0.305051 1.34941 0.681361 1.34941H21.1177C21.494 1.34941 21.799 1.04734 21.799 0.674712C21.799 0.302082 21.494 0 21.1177 0Z" transform="translate(426.94 175.029)" fill="#DBDBDB"/>
<path d="M0.81547 1.61497C1.26584 1.61497 1.63091 1.25346 1.63091 0.807494C1.63091 0.361531 1.26584 0 0.81547 0C0.365102 0 0 0.361531 0 0.807494C0 1.25346 0.365102 1.61497 0.81547 1.61497Z" transform="translate(452.554 174.763)" fill="#DBDBDB"/>
<path d="M28.0657 0H0V25.0116H28.0657V0Z" transform="translate(401.37 199.409)" fill="#3B0754"/>
<path d="M28.0657 0H0V25.0116H28.0657V0Z" transform="translate(443.466 293.891)" fill="#3B0754"/>
<path d="M0 0H70.1571" transform="translate(401.37 238.931)" stroke="#664476" stroke-width="2" stroke-miterlimit="10"/>
<path d="M0 0H70.1571" transform="translate(401.37 252.825)" stroke="#664476" stroke-width="2" stroke-miterlimit="10"/>
<path d="M0 0H70.1571" transform="translate(401.37 266.718)" stroke="#664476" stroke-width="2" stroke-miterlimit="10"/>
<path d="M0 0H70.1571" transform="translate(401.37 280.616)" stroke="#664476" stroke-width="2" stroke-miterlimit="10"/>
<path d="M0 0H132.915V48.4648" transform="translate(111.778 19.3431)" stroke="#3AD29F" stroke-width="2" stroke-miterlimit="10" stroke-dasharray="12 12"/>
<path d="M0 0V89.3272H193.854V74.1226" transform="translate(244.213 280.673)" stroke="#3AD29F" stroke-width="2" stroke-miterlimit="10" stroke-dasharray="12 12"/>
<path opacity="0.5" d="M4.31854 0H0V4.2763H4.31854V0Z" transform="translate(98.597 243.92)" fill="#F55F44"/>
<path opacity="0.5" d="M4.31854 0H0V4.2763H4.31854V0Z" transform="translate(217.597 27.7295)" fill="#F55F44"/>
<path opacity="0.5" d="M4.31854 0H0V4.2763H4.31854V0Z" transform="translate(55.4117 213.986)" fill="#F55F44"/>
<path opacity="0.5" d="M4.31854 0H0V4.2763H4.31854V0Z" transform="translate(94.2786 320.894)" fill="#F55F44"/>
<path opacity="0.5" d="M4.31854 0H0V4.2763H4.31854V0Z" transform="translate(202.242 337.999)" fill="#F55F44"/>
<path opacity="0.5" d="M4.31854 0H0V4.2763H4.31854V0Z" transform="translate(148.5 147.466)" fill="#F55F44"/>
<path opacity="0.5" d="M4.31854 0H0V4.2763H4.31854V0Z" transform="translate(347.153 297.612)" fill="#F55F44"/>
<path opacity="0.5" d="M4.31854 0H0V4.2763H4.31854V0Z" transform="translate(344.754 124.184)" fill="#F55F44"/>
<path opacity="0.5" d="M4.31854 0H0V4.2763H4.31854V0Z" transform="translate(268.939 280.506)" fill="#F55F44"/>
<path opacity="0.5" d="M4.31854 0H0V4.2763H4.31854V0Z" transform="translate(413.85 55.763)" fill="#F55F44"/>
<path opacity="0.5" d="M4.31854 0H0V4.2763H4.31854V0Z" transform="translate(301.568 47.2104)" fill="#F55F44"/>
<path opacity="0.5" d="M4.31854 0H0V4.2763H4.31854V0Z" transform="translate(400.895 355.104)" fill="#F55F44"/>
<defs>
<linearGradient id="paint0_linear" x2="1" gradientUnits="userSpaceOnUse" gradientTransform="translate(-40.4623 179.69) scale(181.47 179.695) rotate(-90)">
<stop stop-color="#808080" stop-opacity="0.25"/>
<stop offset="0.54" stop-color="#808080" stop-opacity="0.12"/>
<stop offset="1" stop-color="#808080" stop-opacity="0.1"/>
</linearGradient>
<linearGradient id="paint1_linear" x2="1" gradientUnits="userSpaceOnUse" gradientTransform="translate(41325.2 110344) scale(38020.6 67957.1) rotate(-90)">
<stop stop-color="#808080" stop-opacity="0.25"/>
<stop offset="0.54" stop-color="#808080" stop-opacity="0.12"/>
<stop offset="1" stop-color="#808080" stop-opacity="0.1"/>
</linearGradient>
<linearGradient id="paint2_linear" x2="1" gradientUnits="userSpaceOnUse" gradientTransform="translate(81899.3 141681) scale(38020.6 67957.1) rotate(-90)">
<stop stop-color="#808080" stop-opacity="0.25"/>
<stop offset="0.54" stop-color="#808080" stop-opacity="0.12"/>
<stop offset="1" stop-color="#808080" stop-opacity="0.1"/>
</linearGradient>
</defs>
</svg>
