<svg  viewBox="0 0 488 371" fill="none" xmlns="http://www.w3.org/2000/svg">
<path d="M96.7163 0H3.81952C1.71006 0 0 1.69333 0 3.78215V175.913C0 178.002 1.71006 179.695 3.81952 179.695H96.7163C98.8258 179.695 100.536 178.002 100.536 175.913V3.78215C100.536 1.69333 98.8258 0 96.7163 0Z" transform="translate(487.972) scale(-1 1)" fill="url(#paint0_linear)"/>
<path d="M91.275 0H6.545C2.9303 0 0 2.90163 0 6.48097V168.358C0 171.937 2.9303 174.839 6.545 174.839H91.275C94.8897 174.839 97.82 171.937 97.82 168.358V6.48097C97.82 2.90163 94.8897 0 91.275 0Z" transform="translate(486.609 2.42801) scale(-1 1)" fill="white"/>
<path d="M71.0305 0C70.7414 1.84898 69.7951 3.535 68.3621 4.75451C66.9291 5.97402 65.1035 6.64691 63.214 6.65203H29.4285C27.539 6.64691 25.7134 5.97402 24.2804 4.75451C22.8474 3.535 21.9011 1.84898 21.6119 0H3.71395C2.72895 0 1.78429 0.387461 1.08779 1.07715C0.391289 1.76684 0 2.70225 0 3.67762V162.376C0 163.351 0.391289 164.287 1.08779 164.976C1.78429 165.666 2.72895 166.054 3.71395 166.054H89.1972C90.1822 166.054 91.1269 165.666 91.8234 164.976C92.5199 164.287 92.9112 163.351 92.9112 162.376V3.67762C92.9112 2.70308 92.5206 1.76838 91.8251 1.07883C91.1296 0.389276 90.1862 0.0012591 89.202 0H71.0305Z" transform="translate(484.157 6.82306) scale(-1 1)" fill="#FAFAFA"/>
<path d="M21.1177 0H0.681374C0.305063 0 0 0.302076 0 0.674706C0 1.04734 0.305063 1.34941 0.681374 1.34941H21.1177C21.494 1.34941 21.7991 1.04734 21.7991 0.674706C21.7991 0.302076 21.494 0 21.1177 0Z" transform="translate(448.462 8.90421) scale(-1 1)" fill="#DBDBDB"/>
<path d="M0.815725 1.61549C1.26624 1.61549 1.63145 1.25385 1.63145 0.807746C1.63145 0.36164 1.26624 0 0.815725 0C0.365212 0 0 0.36164 0 0.807746C0 1.25385 0.365212 1.61549 0.815725 1.61549Z" transform="translate(422.848 8.63815) scale(-1 1)" fill="#DBDBDB"/>
<path d="M96.7163 0H3.81953C1.71007 0 0 1.69333 0 3.78216V175.913C0 178.002 1.71007 179.695 3.81953 179.695H96.7163C98.8258 179.695 100.536 178.002 100.536 175.913V3.78216C100.536 1.69333 98.8258 0 96.7163 0Z" transform="translate(294.184 83.2596) scale(-1 1)" fill="url(#paint1_linear)"/>
<path d="M91.2749 0H6.54499C2.93029 0 0 2.90163 0 6.48097V168.358C0 171.937 2.93029 174.839 6.54499 174.839H91.2749C94.8896 174.839 97.8199 171.937 97.8199 168.358V6.48097C97.8199 2.90163 94.8896 0 91.2749 0Z" transform="translate(292.827 85.6876) scale(-1 1)" fill="white"/>
<path d="M71.0305 0C70.7476 1.85418 69.804 3.54693 68.3704 4.77219C66.9368 5.99745 65.1077 6.67435 63.214 6.68053H29.4285C27.5348 6.67435 25.7057 5.99745 24.2721 4.77219C22.8385 3.54693 21.8949 1.85418 21.6119 0H3.71396C2.72896 0 1.7843 0.387458 1.08779 1.07715C0.391293 1.76683 0 2.70226 0 3.67762V162.4C0 163.375 0.391293 164.311 1.08779 165C1.7843 165.69 2.72896 166.077 3.71396 166.077H89.1925C89.6822 166.08 90.1677 165.988 90.6211 165.804C91.0745 165.621 91.4867 165.35 91.8341 165.009C92.1815 164.667 92.4573 164.26 92.6454 163.813C92.8335 163.365 92.9304 162.885 92.9304 162.4V3.70137C92.9304 2.72601 92.5391 1.79059 91.8426 1.1009C91.1461 0.411216 90.2014 0.0237514 89.2164 0.0237514L71.0305 0Z" transform="translate(290.37 90.0732) scale(-1 1)" fill="#FAFAFA"/>
<path d="M21.1177 0H0.681363C0.305052 0 0 0.302075 0 0.674705C0 1.04733 0.305052 1.34941 0.681363 1.34941H21.1177C21.494 1.34941 21.7991 1.04733 21.7991 0.674705C21.7991 0.302075 21.494 0 21.1177 0Z" transform="translate(254.679 92.1639) scale(-1 1)" fill="#DBDBDB"/>
<path d="M0.815732 1.61549C1.26625 1.61549 1.63143 1.25385 1.63143 0.807745C1.63143 0.361639 1.26625 0 0.815732 0C0.365219 0 0 0.361639 0 0.807745C0 1.25385 0.365219 1.61549 0.815732 1.61549Z" transform="translate(229.065 91.8978) scale(-1 1)" fill="#DBDBDB"/>
<g opacity="0.8">
<path opacity="0.8" d="M2.87903 0V2.85087H0" transform="translate(252.885 138.7) scale(-1 1)" stroke="#664476" stroke-width="2" stroke-miterlimit="10"/>
<path opacity="0.8" d="M15.614 0H0" transform="translate(272.961 141.55) scale(-1 1)" stroke="#664476" stroke-width="2" stroke-miterlimit="10" stroke-dasharray="9.3 9.3"/>
<path opacity="0.8" d="M2.87903 2.85087H0V0" transform="translate(278.067 138.7) scale(-1 1)" stroke="#664476" stroke-width="2" stroke-miterlimit="10"/>
<path opacity="0.8" d="M0 9.65495V0" transform="translate(278.067 122.611) scale(-1 1)" stroke="#664476" stroke-width="2" stroke-miterlimit="10" stroke-dasharray="13.55 13.55"/>
<path opacity="0.8" d="M0 2.85087V0H2.87903" transform="translate(278.067 116.544) scale(-1 1)" stroke="#664476" stroke-width="2" stroke-miterlimit="10"/>
<path opacity="0.8" d="M0 0H15.614" transform="translate(270.73 116.544) scale(-1 1)" stroke="#664476" stroke-width="2" stroke-miterlimit="10" stroke-dasharray="9.3 9.3"/>
<path opacity="0.8" d="M0 0H2.87903V2.85087" transform="translate(252.885 116.544) scale(-1 1)" stroke="#664476" stroke-width="2" stroke-miterlimit="10"/>
<path opacity="0.8" d="M0 0V9.65495" transform="translate(250.006 125.828) scale(-1 1)" stroke="#664476" stroke-width="2" stroke-miterlimit="10" stroke-dasharray="13.55 13.55"/>
</g>
<g opacity="0.8">
<path opacity="0.8" d="M2.87903 0V2.85087H0" transform="translate(211.1 233.187) scale(-1 1)" stroke="#664476" stroke-width="2" stroke-miterlimit="10"/>
<path opacity="0.8" d="M15.614 0H0" transform="translate(231.177 236.038) scale(-1 1)" stroke="#664476" stroke-width="2" stroke-miterlimit="10" stroke-dasharray="9.3 9.3"/>
<path opacity="0.8" d="M2.87903 2.85087H0V0" transform="translate(236.287 233.187) scale(-1 1)" stroke="#664476" stroke-width="2" stroke-miterlimit="10"/>
<path opacity="0.8" d="M0 9.65495V0" transform="translate(236.284 217.094) scale(-1 1)" stroke="#664476" stroke-width="2" stroke-miterlimit="10" stroke-dasharray="13.55 13.55"/>
<path opacity="0.8" d="M0 2.85087V0H2.87903" transform="translate(236.287 211.026) scale(-1 1)" stroke="#664476" stroke-width="2" stroke-miterlimit="10"/>
<path opacity="0.8" d="M0 0H15.6139" transform="translate(228.946 211.026) scale(-1 1)" stroke="#664476" stroke-width="2" stroke-miterlimit="10" stroke-dasharray="9.3 9.3"/>
<path opacity="0.8" d="M0 0H2.87903V2.85087" transform="translate(211.1 211.026) scale(-1 1)" stroke="#664476" stroke-width="2" stroke-miterlimit="10"/>
<path opacity="0.8" d="M0 0V9.65019" transform="translate(208.221 220.315) scale(-1 1)" stroke="#664476" stroke-width="2" stroke-miterlimit="10" stroke-dasharray="13.55 13.55"/>
</g>
<g opacity="0.8">
<path opacity="0.8" d="M0 0H70.1621" transform="translate(278.225 154.674) scale(-1 1)" stroke="#664476" stroke-width="2" stroke-miterlimit="10" stroke-dasharray="12 12"/>
<path opacity="0.8" d="M0 0H70.1621" transform="translate(278.225 168.572) scale(-1 1)" stroke="#664476" stroke-width="2" stroke-miterlimit="10" stroke-dasharray="12 12"/>
<path opacity="0.8" d="M0 0H70.1621" transform="translate(278.225 182.465) scale(-1 1)" stroke="#664476" stroke-width="2" stroke-miterlimit="10" stroke-dasharray="12 12"/>
<path opacity="0.8" d="M0 0H70.1621" transform="translate(278.225 196.358) scale(-1 1)" stroke="#664476" stroke-width="2" stroke-miterlimit="10" stroke-dasharray="12 12"/>
</g>
<path d="M96.7163 0H3.81953C1.71007 0 0 1.69332 0 3.78215V175.913C0 178.002 1.71007 179.695 3.81953 179.695H96.7163C98.8258 179.695 100.536 178.002 100.536 175.913V3.78215C100.536 1.69332 98.8258 0 96.7163 0Z" transform="translate(100.536 166.125) scale(-1 1)" fill="url(#paint2_linear)"/>
<path d="M91.2749 0H6.54501C2.9303 0 0 2.90164 0 6.48098V168.358C0 171.937 2.9303 174.839 6.54501 174.839H91.2749C94.8896 174.839 97.8199 171.937 97.8199 168.358V6.48098C97.8199 2.90164 94.8896 0 91.2749 0Z" transform="translate(99.178 168.553) scale(-1 1)" fill="white"/>
<path d="M71.0306 0C70.7476 1.85418 69.804 3.54694 68.3704 4.7722C66.9367 5.99746 65.1077 6.67437 63.214 6.68055H29.4285C27.5347 6.67437 25.7057 5.99746 24.2721 4.7722C22.8385 3.54694 21.8949 1.85418 21.6119 0H3.71395C2.72895 0 1.78428 0.387465 1.08778 1.07715C0.391278 1.76684 0 2.70226 0 3.67763V162.376C0 163.351 0.391278 164.287 1.08778 164.976C1.78428 165.666 2.72895 166.054 3.71395 166.054H89.1973C90.1823 166.054 91.1269 165.666 91.8234 164.976C92.5199 164.287 92.9112 163.351 92.9112 162.376V3.67763C92.9112 2.70226 92.5199 1.76684 91.8234 1.07715C91.1269 0.387465 90.1823 0 89.1973 0H71.0306Z" transform="translate(96.7212 172.938) scale(-1 1)" fill="#FAFAFA"/>
<path d="M21.1177 0H0.681363C0.305052 0 0 0.302082 0 0.674712C0 1.04734 0.305052 1.34941 0.681363 1.34941H21.1177C21.494 1.34941 21.7991 1.04734 21.7991 0.674712C21.7991 0.302082 21.494 0 21.1177 0Z" transform="translate(61.0308 175.029) scale(-1 1)" fill="#DBDBDB"/>
<path d="M0.815732 1.61549C1.26625 1.61549 1.63143 1.25386 1.63143 0.807752C1.63143 0.361646 1.26625 0 0.815732 0C0.365219 0 0 0.361646 0 0.807752C0 1.25386 0.365219 1.61549 0.815732 1.61549Z" transform="translate(35.417 174.763) scale(-1 1)" fill="#DBDBDB"/>
<path d="M28.0658 0H0V25.0116H28.0658V0Z" transform="translate(86.6013 199.409) scale(-1 1)" fill="#3B0754"/>
<path d="M28.0658 0H0V25.0116H28.0658V0Z" transform="translate(44.5051 293.891) scale(-1 1)" fill="#3B0754"/>
<path d="M0 0H70.1573" transform="translate(86.6013 238.931) scale(-1 1)" stroke="#664476" stroke-width="2" stroke-miterlimit="10"/>
<path d="M0 0H70.1573" transform="translate(86.6013 252.825) scale(-1 1)" stroke="#664476" stroke-width="2" stroke-miterlimit="10"/>
<path d="M0 0H70.1573" transform="translate(86.6013 266.718) scale(-1 1)" stroke="#664476" stroke-width="2" stroke-miterlimit="10"/>
<path d="M0 0H70.1573" transform="translate(86.6013 280.616) scale(-1 1)" stroke="#664476" stroke-width="2" stroke-miterlimit="10"/>
<path d="M0 0H132.915V48.4648" transform="translate(376.194 19.3431) scale(-1 1)" stroke="#3AD29F" stroke-width="2" stroke-miterlimit="10" stroke-dasharray="12 12"/>
<path d="M0 0V89.3272H193.855V74.1226" transform="translate(243.758 280.673) scale(-1 1)" stroke="#3AD29F" stroke-width="2" stroke-miterlimit="10" stroke-dasharray="12 12"/>
<path opacity="0.5" d="M4.31855 0H0V4.2763H4.31855V0Z" transform="translate(389.375 243.92) scale(-1 1)" fill="#F55F44"/>
<path opacity="0.5" d="M4.31855 0H0V4.2763H4.31855V0Z" transform="translate(270.375 27.7295) scale(-1 1)" fill="#F55F44"/>
<path opacity="0.5" d="M4.31855 0H0V4.2763H4.31855V0Z" transform="translate(432.56 213.986) scale(-1 1)" fill="#F55F44"/>
<path opacity="0.5" d="M4.31855 0H0V4.2763H4.31855V0Z" transform="translate(393.693 320.894) scale(-1 1)" fill="#F55F44"/>
<path opacity="0.5" d="M4.31855 0H0V4.2763H4.31855V0Z" transform="translate(285.73 337.999) scale(-1 1)" fill="#F55F44"/>
<path opacity="0.5" d="M4.31855 0H0V4.2763H4.31855V0Z" transform="translate(339.472 147.466) scale(-1 1)" fill="#F55F44"/>
<path opacity="0.5" d="M4.31855 0H0V4.2763H4.31855V0Z" transform="translate(140.818 297.612) scale(-1 1)" fill="#F55F44"/>
<path opacity="0.5" d="M4.31855 0H0V4.2763H4.31855V0Z" transform="translate(143.218 124.184) scale(-1 1)" fill="#F55F44"/>
<path opacity="0.5" d="M4.31855 0H0V4.2763H4.31855V0Z" transform="translate(219.032 280.506) scale(-1 1)" fill="#F55F44"/>
<path opacity="0.5" d="M4.31855 0H0V4.2763H4.31855V0Z" transform="translate(74.1207 55.763) scale(-1 1)" fill="#F55F44"/>
<path opacity="0.5" d="M4.31855 0H0V4.2763H4.31855V0Z" transform="translate(186.403 47.2104) scale(-1 1)" fill="#F55F44"/>
<path opacity="0.5" d="M4.31855 0H0V4.2763H4.31855V0Z" transform="translate(87.0764 355.104) scale(-1 1)" fill="#F55F44"/>
<defs>
<linearGradient id="paint0_linear" x2="1" gradientUnits="userSpaceOnUse" gradientTransform="translate(-40.4624 179.69) scale(181.47 179.695) rotate(-90)">
<stop stop-color="#808080" stop-opacity="0.25"/>
<stop offset="0.54" stop-color="#808080" stop-opacity="0.12"/>
<stop offset="1" stop-color="#808080" stop-opacity="0.1"/>
</linearGradient>
<linearGradient id="paint1_linear" x2="1" gradientUnits="userSpaceOnUse" gradientTransform="translate(41325.3 110344) scale(38020.6 67957.1) rotate(-90)">
<stop stop-color="#808080" stop-opacity="0.25"/>
<stop offset="0.54" stop-color="#808080" stop-opacity="0.12"/>
<stop offset="1" stop-color="#808080" stop-opacity="0.1"/>
</linearGradient>
<linearGradient id="paint2_linear" x2="1" gradientUnits="userSpaceOnUse" gradientTransform="translate(81899.5 141681) scale(38020.6 67957.1) rotate(-90)">
<stop stop-color="#808080" stop-opacity="0.25"/>
<stop offset="0.54" stop-color="#808080" stop-opacity="0.12"/>
<stop offset="1" stop-color="#808080" stop-opacity="0.1"/>
</linearGradient>
</defs>
</svg>
