<svg viewBox="0 0 488 371" fill="none" xmlns="http://www.w3.org/2000/svg"><path d="M96.716 0H3.82C1.71 0 0 1.693 0 3.782v172.131c0 2.089 1.71 3.782 3.82 3.782h92.896c2.11 0 3.82-1.693 3.82-3.782V3.783c0-2.09-1.71-3.783-3.82-3.783z" fill="url(#paint0_linear)"/><path d="M92.637 2.427H7.907c-3.614 0-6.545 2.902-6.545 6.481v161.877c0 3.58 2.93 6.481 6.545 6.481h84.73c3.615 0 6.545-2.902 6.545-6.48V8.907c0-3.58-2.93-6.48-6.545-6.48z" fill="#fff"/><path d="M74.845 6.823a7.835 7.835 0 0 1-2.668 4.755 7.978 7.978 0 0 1-5.149 1.897H33.243a7.978 7.978 0 0 1-5.148-1.897 7.835 7.835 0 0 1-2.668-4.755H7.529c-.985 0-1.93.388-2.627 1.077a3.66 3.66 0 0 0-1.087 2.6v158.7c0 .974.39 1.91 1.087 2.6a3.732 3.732 0 0 0 2.627 1.077h85.483c.985 0 1.93-.388 2.626-1.078a3.658 3.658 0 0 0 1.088-2.6V10.501c0-.975-.391-1.91-1.086-2.6a3.733 3.733 0 0 0-2.624-1.078H74.845z" fill="#FAFAFA"/><path d="M60.627 8.904H40.191a.678.678 0 0 0-.681.675c0 .373.305.675.681.675h20.436a.678.678 0 0 0 .682-.675.678.678 0 0 0-.681-.675zM65.94 10.253c.45 0 .815-.361.815-.807a.812.812 0 0 0-.816-.808.812.812 0 0 0-.815.808c0 .446.365.807.815.807z" fill="#DBDBDB"/><path d="M96.716 0H3.82C1.71 0 0 1.693 0 3.782v172.131c0 2.089 1.71 3.782 3.82 3.782h92.896c2.11 0 3.82-1.693 3.82-3.782V3.783c0-2.09-1.71-3.783-3.82-3.783z" transform="translate(193.787 83.26)" fill="url(#paint1_linear)"/><path d="M286.42 85.688h-84.73c-3.615 0-6.545 2.901-6.545 6.48v161.878c0 3.579 2.93 6.48 6.545 6.48h84.73c3.614 0 6.545-2.901 6.545-6.48V92.169c0-3.58-2.93-6.481-6.545-6.481z" fill="#fff"/><path d="M268.632 90.073a7.834 7.834 0 0 1-2.66 4.772 7.978 7.978 0 0 1-5.156 1.909H227.03a7.978 7.978 0 0 1-5.156-1.909 7.834 7.834 0 0 1-2.66-4.772h-17.898c-.985 0-1.93.388-2.626 1.077a3.66 3.66 0 0 0-1.088 2.6v158.723c0 .975.391 1.911 1.088 2.6a3.731 3.731 0 0 0 2.626 1.077h85.478a3.737 3.737 0 0 0 2.642-1.068 3.649 3.649 0 0 0 1.096-2.609V93.775a3.66 3.66 0 0 0-1.088-2.6 3.733 3.733 0 0 0-2.626-1.078l-18.186-.024z" fill="#FAFAFA"/><path d="M254.41 92.164h-20.437a.678.678 0 0 0-.681.675c0 .372.305.674.681.674h20.437a.678.678 0 0 0 .681-.674.678.678 0 0 0-.681-.675zM259.721 93.513c.45 0 .816-.362.816-.808a.811.811 0 0 0-.816-.807.812.812 0 0 0-.815.807c0 .446.365.808.815.808z" fill="#DBDBDB"/><g opacity=".8" stroke="#664476" stroke-width="2" stroke-miterlimit="10"><path opacity=".8" d="M237.965 138.7v2.85h-2.878"/><path opacity=".8" d="M230.624 141.55H215.01" stroke-dasharray="9.3 9.3"/><path opacity=".8" d="M212.783 141.55h-2.878v-2.85"/><path opacity=".8" d="M209.905 132.266v-9.655" stroke-dasharray="13.55 13.55"/><path opacity=".8" d="M209.905 119.394v-2.85h2.878"/><path opacity=".8" d="M217.242 116.544h15.614" stroke-dasharray="9.3 9.3"/><path opacity=".8" d="M235.087 116.544h2.878v2.85"/><path opacity=".8" d="M237.966 125.828v9.655" stroke-dasharray="13.55 13.55"/></g><g opacity=".8" stroke="#664476" stroke-width="2" stroke-miterlimit="10"><path opacity=".8" d="M279.75 233.187v2.85h-2.879"/><path opacity=".8" d="M272.409 236.038h-15.614" stroke-dasharray="9.3 9.3"/><path opacity=".8" d="M254.563 236.037h-2.878v-2.85"/><path opacity=".8" d="M251.689 226.749v-9.655" stroke-dasharray="13.55 13.55"/><path opacity=".8" d="M251.685 213.876v-2.85h2.878"/><path opacity=".8" d="M259.026 211.026h15.614" stroke-dasharray="9.3 9.3"/><path opacity=".8" d="M276.871 211.026h2.878v2.85"/><path opacity=".8" d="M279.75 220.315v9.65" stroke-dasharray="13.55 13.55"/></g><g opacity=".8" stroke="#664476" stroke-width="2" stroke-miterlimit="10" stroke-dasharray="12 12"><path opacity=".8" d="M209.747 154.674h70.162M209.747 168.572h70.162M209.747 182.465h70.162M209.747 196.358h70.162"/></g><path d="M96.716 0H3.82C1.71 0 0 1.693 0 3.782v172.131c0 2.089 1.71 3.782 3.82 3.782h92.896c2.11 0 3.82-1.693 3.82-3.782V3.783c0-2.09-1.71-3.783-3.82-3.783z" transform="translate(387.435 166.125)" fill="url(#paint2_linear)"/><path d="M480.068 168.553h-84.73c-3.615 0-6.545 2.902-6.545 6.481v161.877c0 3.579 2.93 6.481 6.545 6.481h84.73c3.614 0 6.545-2.902 6.545-6.481V175.034c0-3.58-2.93-6.481-6.545-6.481z" fill="#fff"/><path d="M462.28 172.938a7.834 7.834 0 0 1-2.66 4.772 7.978 7.978 0 0 1-5.156 1.909h-33.786a7.978 7.978 0 0 1-5.156-1.909 7.834 7.834 0 0 1-2.66-4.772h-17.898c-.985 0-1.93.387-2.626 1.077a3.66 3.66 0 0 0-1.088 2.6v158.699c0 .975.391 1.911 1.088 2.6a3.732 3.732 0 0 0 2.626 1.078h85.483c.985 0 1.93-.388 2.626-1.078a3.658 3.658 0 0 0 1.088-2.6V176.616a3.66 3.66 0 0 0-1.088-2.6 3.733 3.733 0 0 0-2.626-1.078H462.28z" fill="#FAFAFA"/><path d="M448.058 175.029H427.62a.678.678 0 0 0-.681.675c0 .372.305.674.681.674h20.437a.678.678 0 0 0 .681-.674.678.678 0 0 0-.681-.675zM453.37 176.378c.45 0 .815-.362.815-.808a.811.811 0 0 0-.816-.807.812.812 0 0 0-.815.807c0 .446.365.808.815.808z" fill="#DBDBDB"/><path d="M429.436 199.409H401.37v25.012h28.066v-25.012zM471.532 293.891h-28.066v25.012h28.066V293.89z" fill="#3B0754"/><path d="M401.37 238.931h70.157M401.37 252.825h70.157M401.37 266.718h70.157M401.37 280.616h70.157" stroke="#664476" stroke-width="2" stroke-miterlimit="10"/><path d="M111.778 19.343h132.915v48.465M244.213 280.673V370h193.854v-15.204" stroke="#3AD29F" stroke-width="2" stroke-miterlimit="10" stroke-dasharray="12 12"/><path opacity=".5" d="M102.916 243.92h-4.319v4.276h4.319v-4.276zM221.916 27.73h-4.319v4.276h4.319V27.73zM59.73 213.986h-4.318v4.276h4.318v-4.276zM98.597 320.894H94.28v4.276h4.318v-4.276zM206.56 337.999h-4.318v4.276h4.319V338zM152.819 147.466H148.5v4.276h4.319v-4.276zM351.472 297.612h-4.319v4.276h4.319v-4.276zM349.073 124.184h-4.319v4.276h4.319v-4.276zM273.258 280.506h-4.319v4.276h4.319v-4.276zM418.169 55.763h-4.319v4.276h4.319v-4.276zM305.887 47.21h-4.319v4.277h4.319V47.21zM405.214 355.104h-4.319v4.276h4.319v-4.276z" fill="#F55F44"/><defs><linearGradient id="paint0_linear" x2="1" gradientUnits="userSpaceOnUse" gradientTransform="matrix(0 -179.695 181.47 0 -40.462 179.69)"><stop stop-color="gray" stop-opacity=".25"/><stop offset=".54" stop-color="gray" stop-opacity=".12"/><stop offset="1" stop-color="gray" stop-opacity=".1"/></linearGradient><linearGradient id="paint1_linear" x2="1" gradientUnits="userSpaceOnUse" gradientTransform="matrix(0 -67957.1 38020.6 0 41325.2 110344)"><stop stop-color="gray" stop-opacity=".25"/><stop offset=".54" stop-color="gray" stop-opacity=".12"/><stop offset="1" stop-color="gray" stop-opacity=".1"/></linearGradient><linearGradient id="paint2_linear" x2="1" gradientUnits="userSpaceOnUse" gradientTransform="matrix(0 -67957.1 38020.6 0 81899.3 141681)"><stop stop-color="gray" stop-opacity=".25"/><stop offset=".54" stop-color="gray" stop-opacity=".12"/><stop offset="1" stop-color="gray" stop-opacity=".1"/></linearGradient></defs></svg>